<svg width="512px" height="512px" viewBox="-10 0 152 38" fill="none" xmlns="http://www.w3.org/2000/svg">
<path d="M66.8716 9.30028L66.9489 11.5809C68.4565 9.80278 70.4665 8.95239 73.0177 8.95239C75.5688 8.95239 77.8108 10.0347 78.8544 12.238C79.5502 11.2716 80.4006 10.4599 81.5216 9.84144C82.6039 9.22297 83.8795 8.95239 85.387 8.95239C89.8709 8.95239 92.1515 11.3103 92.2288 16.0648V29.7484H88.7499V16.258C88.7499 14.7892 88.402 13.7069 87.7449 12.9724C87.0878 12.238 85.9668 11.8901 84.382 11.8901C82.7972 11.8901 82.0241 12.2767 81.135 13.0497C80.2846 13.8228 79.7821 14.8665 79.6275 16.1807V29.7484H76.11V16.374C76.11 13.3976 74.6411 11.9288 71.7421 11.9288C68.843 11.9288 67.8766 12.8951 67.0262 14.8665V29.787H63.5474V9.37759H66.833L66.8716 9.30028Z" fill="#004CDE"/>
<path d="M105.681 30.1349C103.941 30.1349 102.356 29.7097 100.965 28.8593C99.5732 28.0089 98.4522 26.8106 97.6792 25.2645C96.9061 23.7183 96.5195 22.0175 96.5195 20.1235V19.3117C96.5195 17.3404 96.9061 15.5623 97.6792 14.0161C98.4522 12.4313 99.4959 11.1943 100.849 10.3053C102.202 9.41624 103.671 8.95239 105.255 8.95239C107.729 8.95239 109.701 9.80279 111.169 11.5036C112.638 13.2044 113.334 15.5236 113.334 18.4613V19.7369H98.7615V20.1621C98.7615 22.4814 99.4186 24.4141 100.771 25.9603C102.086 27.5064 103.787 28.2795 105.797 28.2795C107.807 28.2795 108.077 28.0476 109.005 27.6224C109.933 27.1972 110.783 26.4628 111.517 25.4964L112.948 26.5787C111.285 28.9753 108.889 30.1736 105.719 30.1736L105.681 30.1349ZM105.255 10.8464C103.555 10.8464 102.124 11.4649 100.965 12.7018C99.8051 13.9388 99.1094 15.6396 98.8388 17.7269H111.092V17.495C111.015 15.5236 110.474 13.9388 109.43 12.7018C108.386 11.4649 106.995 10.8464 105.294 10.8464H105.255Z" fill="#004CDE"/>
<path d="M117.083 19.3117C117.083 16.0647 117.779 13.5136 119.132 11.6581C120.485 9.8414 122.379 8.9137 124.776 8.9137C127.172 8.9137 127.675 9.26159 128.834 9.95737C129.994 10.6531 130.96 11.6968 131.695 13.0497V0.718994H132.7V29.7097H131.695V26.4627C130.999 27.6223 130.071 28.5114 128.834 29.1685C127.636 29.787 126.245 30.1349 124.737 30.1349C122.379 30.1349 120.485 29.2072 119.132 27.3131C117.741 25.4191 117.083 22.8679 117.083 19.5823V19.3117ZM118.166 19.6982C118.166 22.5973 118.746 24.8779 119.867 26.5787C121.026 28.2408 122.65 29.0912 124.737 29.0912C126.824 29.0912 127.868 28.7047 129.066 27.9702C130.265 27.2358 131.154 26.1148 131.733 24.6846V15.0984C130.574 11.6581 128.255 9.95737 124.776 9.95737C121.297 9.95737 121.065 10.7691 119.905 12.4312C118.746 14.0934 118.166 16.5286 118.166 19.7369V19.6982Z" fill="#004CDE"/>
<path d="M51.4488 26.4628C52.6084 26.4628 53.5361 26.1149 54.3092 25.4577C55.0823 24.8006 55.4688 23.9502 55.5075 22.9839H59.8368C59.7981 24.2595 59.3729 25.4578 58.6385 26.5401C57.9041 27.6224 56.899 28.5114 55.6235 29.1686C54.3479 29.8257 52.995 30.1349 51.5261 30.1349C48.6657 30.1349 46.3851 29.2072 44.723 27.3518C43.0608 25.4964 42.2104 22.9452 42.2104 19.6983V19.2344C42.2104 16.1421 43.0222 13.6295 44.6843 11.7741C46.3464 9.91874 48.6271 8.95239 51.4875 8.95239C54.3479 8.95239 55.894 9.64817 57.4402 11.0784C58.9864 12.5086 59.7595 14.364 59.8368 16.6446H55.5075C55.4688 15.485 55.0436 14.5186 54.3092 13.7455C53.5748 12.9724 52.6084 12.6245 51.4488 12.6245C50.2892 12.6245 48.8203 13.1657 48.0086 14.248C47.1968 15.3303 46.8103 16.9538 46.7716 19.1571V19.8915C46.7716 22.0948 47.1582 23.757 47.9699 24.8393C48.7817 25.9216 49.9413 26.4628 51.4488 26.4628Z" fill="#004CDE"/>
<path d="M5.02497 24.9553C4.44515 23.4091 3.20822 22.1721 1.66205 21.5923L0.0385742 20.9739V37.5952H6.41652V28.5888L5.06362 24.9553H5.02497Z" fill="#004CDE"/>
<path d="M1.66213 17.4564C3.2083 16.8766 4.44523 15.6396 5.02505 14.0935L6.37794 10.46V9.33899H5.95275H0V18.1135L1.62348 17.495L1.66213 17.4564Z" fill="#004CDE"/>
<path d="M17.5103 12.7792C17.317 12.3926 17.0851 12.0447 16.8532 11.7355C16.1188 10.7691 15.2684 10.0734 14.2634 9.60951C13.297 9.18431 12.2147 8.95239 10.9777 8.95239C9.74081 8.95239 8.54253 9.30028 7.57617 9.9574C7.57617 9.99606 7.65348 10.0347 7.65348 10.112L9.12234 14.1321C9.70215 15.6782 10.9391 16.9152 12.4853 17.495L16.5053 18.9638C17.0078 19.1571 17.0078 19.8915 16.5053 20.0848L12.4853 21.5537C10.9391 22.1335 9.70215 23.3704 9.12234 24.9166L7.65348 28.9366C7.65348 28.9753 7.61483 29.0526 7.57617 29.0912C8.58118 29.7484 9.70215 30.0963 11.0164 30.0963C13.4516 30.0963 15.3843 29.1686 16.8145 27.2745C18.2447 25.3804 18.9405 22.8293 18.9405 19.6596V19.3504C18.9405 16.6832 18.4767 14.4799 17.5103 12.7405V12.7792Z" fill="#004CDE"/>
<path d="M24.5454 5.12559L22.6513 4.4298C21.9169 4.15922 21.3371 3.57941 21.0665 2.84498L20.3707 0.950922C20.2934 0.718996 19.9455 0.718996 19.8296 0.950922L19.1338 2.84498C18.9405 3.34748 18.6313 3.77268 18.2061 4.08192C18.0128 4.23653 17.7809 4.35249 17.549 4.4298L15.6549 5.12559C15.423 5.20289 15.423 5.55078 15.6549 5.66674L17.549 6.36251C18.2834 6.63309 18.8632 7.21291 19.1338 7.94734L19.8296 9.8414C19.9069 10.0733 20.2548 10.0733 20.3707 9.8414L21.0665 7.94734C21.1438 7.67676 21.2984 7.44484 21.453 7.25157C21.7623 6.86503 22.1875 6.51713 22.6513 6.36251L24.5454 5.66674C24.7773 5.58943 24.7773 5.24155 24.5454 5.12559Z" fill="#004CDE"/>
<path d="M38.5769 25.0326V16.1807C38.5769 13.9001 37.8424 12.122 36.3736 10.8464C34.9047 9.57086 32.8947 8.95239 30.3822 8.95239C27.8696 8.95239 27.2125 9.22297 25.8983 9.80278C24.5454 10.3826 23.5404 11.1557 22.8059 12.1607C22.0715 13.1657 21.7236 14.248 21.7236 15.4463H27.1739C27.1739 14.6732 27.4444 14.0934 27.9469 13.6296C28.4881 13.2044 29.1839 12.9724 30.1116 12.9724C31.0393 12.9724 31.9283 13.243 32.3922 13.8228C32.8947 14.4026 33.1266 15.1371 33.1266 16.1034V17.2631H30.6141C27.5991 17.2631 25.2798 17.8429 23.6563 19.0025C22.0329 20.1621 21.2598 21.8242 21.2598 23.9889C21.2598 26.1535 21.9169 27.1972 23.2311 28.3568C24.5454 29.5164 26.2075 30.0963 28.2175 30.0963C30.2275 30.0963 32.0443 29.3618 33.3585 27.893C33.4745 28.6274 33.6678 29.2459 33.8997 29.7097H39.4273V29.4005C38.8861 28.3955 38.6155 26.9266 38.6155 24.9939L38.5769 25.0326ZM32.7014 23.6797L31.0779 24.2595C30.6527 24.4141 30.3049 24.6847 30.0343 25.0326C29.9183 25.2258 29.8024 25.4191 29.725 25.6124L29.1452 27.2358C29.0679 27.4291 28.7587 27.4291 28.6814 27.2358L28.1016 25.6124C27.8696 24.9939 27.3671 24.4914 26.7487 24.2595L25.1252 23.6797C24.9319 23.6023 24.9319 23.2931 25.1252 23.2158L26.7487 22.636C26.9419 22.5587 27.1352 22.4427 27.2898 22.3268C27.6377 22.0562 27.947 21.7083 28.1016 21.2831L28.6814 19.6596C28.7587 19.4663 29.0679 19.4663 29.1452 19.6596L29.725 21.2831C29.957 21.9016 30.4595 22.4041 31.0779 22.636L32.7014 23.2158C32.8947 23.2931 32.8947 23.6023 32.7014 23.6797Z" fill="#004CDE"/>
</svg>
