<?xml version="1.0" encoding="utf-8"?>
<!-- Generator: Adobe Illustrator 25.0.1, SVG Export Plug-In . SVG Version: 6.00 Build 0)  -->
<svg version="1.1" id="Laag_1" xmlns="http://www.w3.org/2000/svg" xmlns:xlink="http://www.w3.org/1999/xlink" x="0px" y="0px"
	 viewBox="0 0 512 512" style="enable-background:new 0 0 512 512;" xml:space="preserve">
<style type="text/css">
	.st0{fill:none;}
	.st1{fill:#FFFFFF;stroke:#000000;stroke-miterlimit:10;}
	.st2{fill:#003C7D;}
</style>
<path class="st0" d="M0,0"/>
<path class="st1" d="M1196.3-1181.6"/>
<g transform="translate(51.81 6.875)">
	<g transform="translate(0 15.625)">
		<path class="st2" d="M223.3,442.4c-11.5,0-17.2-5.7-17.2-16.5c0-10.5,6.7-17.2,16.9-17.2c5,0,6.9,1,8.6,1.7l0.7,0.2v6.9h-2.1
			c-1-2.9-2.6-5.7-7.4-5.7c-7.6,0-12.2,4.8-12.2,13.4c0,8.6,4.8,13.4,13.1,13.4c3.8,0,6-1.2,7.4-1.7l1.2,2.9
			C232.8,439.8,229,442.4,223.3,442.4L223.3,442.4z M47.6,429.5c0.2,8.4,4.1,9.3,9.3,9.3c1.9,0,4.5-0.2,6.4-0.7l0.7,2.6
			c-1.7,1-5,1.9-8.3,1.9c-7.9,0-12.4-2.2-12.4-12.7c0-7.6,4.5-13.6,11.5-13.6s9.5,4.8,9.5,12.2v1.2L47.6,429.5L47.6,429.5z
			 M54.5,418.8c-3.6,0-6.4,2.9-6.9,8.4h12.2C59.8,421.6,58.4,418.8,54.5,418.8L54.5,418.8z M88,442.4c-2.1,0-2.6-2.2-2.6-3.8
			c-1.9,2.1-4.1,3.8-7.4,3.8c-4.8,0-9.8-2.6-9.8-12.2c0-8.6,5.5-14.1,12.2-14.1c2.1,0,3.8,0.2,5,0.7v-7.4h-4.8v-2.1
			c1.7-0.2,4.8-1,6.9-1c1.2,0,1.9,0.2,1.9,1.7v21.3l0.2,9.3h4.8l0.2,1.9C93.7,441,90.6,442.4,88,442.4L88,442.4z M85.8,419.7
			c-1.2-0.2-2.9-0.7-5.5-0.7c-6,0-7.4,4.8-7.4,11.2c0,6,2.6,7.9,6.9,7.9c2.1,0,3.8-1,5.7-1.9l0.2-7.4L85.8,419.7L85.8,419.7z
			 M111.3,441.9H98c0-0.7-0.2-1.7,0-1.9l2.9-1c0.7-0.2,1.7-1.7,1.7-2.6v-17.2h-4.8v-2.2c1.7-0.2,4.8-1,6.9-1c1.2,0,1.9,0.2,1.9,1.7
			v20.1c0,0.7,0.2,1,0.7,1l4.1,0.7C111.6,440,111.6,441.5,111.3,441.9L111.3,441.9z M123.3,442.4c-3.6,0-6-0.7-8.4-1.7l0.2-7.4h2.1
			c0,3.1,2.1,6.5,6,6.5c2.9,0,5.5-1,5.5-3.6c0-2.1-1.9-3.1-6-4.8c-3.6-1.2-7.4-3.6-7.4-8.4c0-5,4.1-6.9,8.8-6.9c2.6,0,5,0.7,7.4,1.7
			l-0.7,6.5l-1.7-0.2c-0.2-2.9-2.9-4.8-5.7-4.8c-2.9,0-4.5,1.7-4.5,3.1c0,2.9,2.9,3.8,5.7,5c3.6,1.7,7.6,3.6,7.6,7.9
			C133.3,440.8,128,442.4,123.3,442.4L123.3,442.4z M154.8,422.8c-1.2-1.2-3.6-3.6-6-3.6c-5,0-7.4,2.6-7.4,9.8
			c0,5.7,1.7,9.8,8.6,9.8c1.9,0,4.8-0.7,5.7-1l0.7,2.6c-1,0.7-3.6,1.9-7.6,1.9c-9.3,0-11.7-3.8-11.7-13.4c0-6.7,4.8-13.1,12.2-13.1
			c2.1,0,7.6,0,7.6,3.1C157.2,420.7,156.4,421.9,154.8,422.8z M190.6,441.9h-11.5c0-0.7-0.2-1.7,0-2.2l1.9-1
			c0.7-0.2,1.2-1.2,1.2-2.9v-10.5c0-4.1-0.7-5.7-5.5-5.7c-2.9,0-6.9,1.2-7.9,2.2v7.6l0.2,8.4c0,1.2,0,1.2,1,1.7l4.5,0.7
			c0,0.2,0,1.9-0.2,2.2h-13.1c0-0.7-0.2-1.7,0-1.9l2.1-1c1-0.2,1.7-1.7,1.7-3.1v-26.5h-4.8v-2.1c1.7-0.2,4.8-1,6.9-1
			c1.2,0,1.9,0.2,1.9,1.7v11.2c1.9-1.2,5-3.6,9.5-3.6c6.9,0,7.6,3.6,7.6,8.6v13.4c0,0.7,0.2,1,1,1l3.6,0.7
			C190.6,439.8,190.6,441.5,190.6,441.9L190.6,441.9z M240.4,429.5c0.2,8.4,4.1,9.3,9.3,9.3c1.9,0,4.5-0.2,6.4-0.7l0.7,2.6
			c-1.7,1-5,1.9-8.4,1.9c-7.9,0-12.4-2.2-12.4-12.7c0-7.6,4.5-13.6,11.5-13.6c6.9,0,9.5,4.8,9.5,12.2v1.2L240.4,429.5L240.4,429.5z
			 M247.4,418.8c-3.6,0-6.4,2.9-6.9,8.4h12.2C252.6,421.6,251.2,418.8,247.4,418.8z M291,441.9h-11.2c0-0.7-0.2-1.7,0-2.2l1.2-1
			c1-0.7,1.2-1.7,1.2-2.6v-10.8c0-4.1-0.7-5.7-5.5-5.7c-2.9,0-6.4,1.2-7.6,2.2v16.2c0,0.7,0,1,0.7,1.2l4.1,0.7c0,0.2,0,1.9-0.2,2.1
			h-12.4c0-0.7-0.2-1.7,0-1.9l2.1-1c1-0.2,1.7-1.9,1.7-2.9V420h-4.8v-2.1c1.7-0.2,4.8-1,6.9-1c1.2,0,1.7,0.2,1.7,1.7v1
			c1.9-1.2,4.8-3.6,9.3-3.6c6.9,0,7.6,3.6,7.6,8.6v4.8l0.2,8.8c0,0.7,0,0.7,0.7,0.7l3.8,0.7C291,440,291,441.5,291,441.9L291,441.9z
			 M309.6,441.7c-1.2,0.7-3.8,1-5.5,1c-6,0-8.6-1.7-8.3-7.4v-15.5H292v-1.7l7.4-6.7h0.7v5h8.6v3.1h-8.6V435c0,3.6,1.7,4.1,4.8,4.1
			c1.2,0,2.9-0.2,4.1-0.7L309.6,441.7L309.6,441.7z M330.7,420.7c-0.7-0.2-1.7-0.7-2.9-0.7c-3.1,0-5.5,0.7-6.7,1.9v6.9l0.2,8.6
			c0,0.7,0,1.2,0.7,1.2l4.8,0.7c0,0.2,0,1.9-0.2,2.2h-13.4c0-0.7-0.2-1.7-0.2-1.9l2.1-1.2c0.7-0.2,1.7-1.7,1.7-3.6v-15.5H312v-2.2
			c1.7-0.2,4.8-1,6.9-1c1.2,0,1.9,0.2,1.9,1.7v1.9c1.2-1.9,4.1-3.8,7.4-3.8c1.7,0,2.6,0.2,3.1,0.2L330.7,420.7z M362.4,440.5
			c-1,0.7-3.8,1.9-6.4,1.9c-1.7,0-3.1-0.7-3.6-3.6c-1.9,1.9-4.1,3.8-8.6,3.8c-6.7,0-7.4-3.1-7.4-7.6v-15.5h-4.1v-2.1
			c1.7-0.2,4.5-1,6.7-1c1.2,0,1.9,0.2,1.9,1.7v15.8c0,2.9,0.2,5.5,4.1,5.5c2.6,0,5-1.7,7.4-3.6l0.2-6.4v-9.6h-4.8v-2.2
			c1.7-0.2,4.8-1,6.9-1c1.2,0,1.9,0.2,1.9,1.7v20.5h5L362.4,440.5L362.4,440.5z M410.4,441.9h-11.5c-0.2-0.7-0.2-1.7-0.2-2.2l1.7-1
			c0.7-0.2,1.2-1.2,1.2-2.6v-10.8c0-4.1-0.2-5.7-5-5.7c-2.6,0-5.7,1-7.4,1.9v16.5c0,0.7,0.2,1,0.7,1l4.1,0.7c0,0.2,0,1.9-0.2,2.6
			H382c0-0.7-0.2-1.7-0.2-2.2l1.7-1c0.7-0.2,1-1.2,1.2-1.9v-11.5c0-4.1-0.2-5.7-5-5.7c-2.9,0-6,1.2-7.4,2.2v7.6l0.2,8.4
			c0,0.7,0,1.2,0.7,1.2l3.8,0.7c0,0.2,0,1.9-0.2,2.6h-12.2c-0.2-0.7-0.2-1.7-0.2-1.9l1.9-1c1-0.2,1.9-1.2,1.9-2.9v-16.5h-4.8v-2.2
			c1.7-0.2,4.8-1,6.9-1c1.2,0,1.9,0.2,1.9,1.7v0.7c1.9-1.2,4.5-3.6,8.8-3.6c4.1,0,6,1.2,6.7,3.1c1.9-1.2,4.8-3.1,9.3-3.1
			c6.9,0,7.6,3.6,7.6,8.6v4.8l0.2,8.6c0,1,0,1,1,1l3.6,0.7C410.8,440,410.8,441.5,410.4,441.9L410.4,441.9z"/>
		<circle class="st2" cx="104.2" cy="408.3" r="3.8"/>
		<path class="st2" d="M37.8,438.8c-0.7-0.2-1.7-1.2-1.7-2.2l-2.9-21.3c-0.2-1.9,0.7-3.1,1.7-3.8l2.1-0.7c0-0.7,0-1.2-0.2-1.9H28
			l-8.8,22.9H19l-8.6-22.7H1.1c0,0.7-0.2,1.7-0.2,1.9l2.9,1c1,0.2,1.7,1.7,1.2,2.6l-3.1,20.8c-0.2,1.7-1.2,2.9-2.6,3.6l-1.4,0.7
			c0,0.7,0,1.2,0.2,1.9h12.2c0.2-0.7,0.2-1.9,0.2-2.2l-4.8-1c-0.7,0-0.7-0.7-0.7-1.7l2.9-18.9v-2.1H8l8.6,23.7l3.1-1l8.8-22.2h0.2
			v2.6l1.9,15.5v1.9c0,1.7-0.2,2.9-1.9,3.6l-1.9,0.7c0,0.7,0,1.2,0.2,1.9h12.2c0-0.7,0.2-1.7,0.2-2.2L37.8,438.8L37.8,438.8z"/>
	</g>
	<path class="st2" d="M23,397.4H-0.6c0-0.7-0.2-1.7-0.2-2.2l2.9-1c1.2-0.2,1.7-1.7,1.7-2.6v-21.3c0-1.2-0.2-2.6-1.2-2.9l-2.9-1
		c0-0.2,0-1.2,0.2-1.9h12.2c0,0.7,0.2,1.7,0.2,1.9l-2.1,0.7c-1.2,0.2-1.9,0.2-1.9,1.9v15.5l0.2,9.6l7.6-0.2c2.9,0,4.8-2.1,5.7-4.5
		l2.1,0.2L23,397.4z M30.7,384.9c0.2,8.4,4.1,9.3,9.3,9.3c1.9,0,4.5-0.2,6.4-0.7l0.7,2.6c-1.7,1-5,1.9-8.3,1.9
		c-7.9,0-12.4-2.2-12.4-12.7c0-7.6,4.5-13.6,11.5-13.6s9.5,4.8,9.5,12.2v1.2C47.4,384.9,30.7,384.9,30.7,384.9L30.7,384.9z
		 M37.8,374.2c-3.6,0-6.4,2.9-6.7,7.9h12.2C42.8,377,41.7,374.2,37.8,374.2z M51.7,395.4l2.9-1c0.7-0.2,1.7-1.7,1.7-2.6v-16.5h-4.8
		v-2.1c1.7-0.2,4.8-1,6.9-1c1.2,0,1.9,0.2,1.9,1.7V394c0,0.7,0.2,1,0.7,1l4.1,0.7c0,0.2,0,1.9-0.2,2.2H51.7V395.4L51.7,395.4z
		 M88,397.8c-2.1,0-2.6-2.2-2.6-3.8c-1.9,2.1-4.1,3.8-7.4,3.8c-4.8,0-9.8-2.6-9.8-12.2c0-8.6,5.5-14.1,11.7-14.1
		c2.1,0,3.8,0.2,5,0.7v-7.4h-4.8v-1.9c1.7-0.2,4.8-1,6.9-1c1.2,0,1.9,0.2,1.9,1.7v21l0.2,9.3h4.8l0.2,1.9
		C93.7,396.4,90.6,397.8,88,397.8z M85.8,375.4c-1.2-0.2-2.9-0.7-5.5-0.7c-6,0-7.4,4.8-7.4,11.2c0,6,2.6,7.9,6.9,7.9
		c2.1,0,3.8-1,5.7-1.9l0.2-6.9L85.8,375.4L85.8,375.4z M106.1,397.8c-3.6,0-6-0.7-8.4-1.7l0.2-7.4h2.1c0,3.1,2.1,6,6,6
		c2.9,0,5.5-1,5.5-3.6c0-2.1-1.9-3.1-6-4.8c-3.6-1.2-7.4-3.6-7.4-8.4s4.5-6.7,9.3-6.7c2.6,0,5,0.7,7.4,1.7l-0.7,6l-1.7-0.2
		c-0.2-2.9-2.9-4.8-5.7-4.8c-2.9,0-4.5,1.7-4.5,3.1c0,2.9,2.9,3.8,5.7,5c3.6,1.7,7.6,3.6,7.6,7.9
		C115.6,396.2,110.9,397.8,106.1,397.8z M162.4,367.3c-0.7,0.2-1.2,0.2-1.2,1.9v16c0,9.6-6.9,13.1-13.1,13.1
		c-6.4,0-13.1-2.2-13.1-11.7v-16.5c0-1-0.7-2.1-1.2-2.6l-2.9-1c0-0.2,0-1.2,0.2-1.9h12.4v2.2l-2.6,0.7c-1,0.2-1.2,0.7-1.2,1.7v17.2
		c0,6.7,4.5,8.8,8.6,8.8c5,0,8.6-2.6,8.6-9.8v-14.6c0-1.7-0.2-2.6-2.6-3.1l-1.9-0.7v-1.9h12.2v1.9L162.4,367.3L162.4,367.3z
		 M197.2,397.4H186c0-0.7-0.2-1.7,0-2.2l1.2-1c1-0.7,1.2-1.7,1.2-2.6v-10.8c0-4.1-0.7-5.7-5-5.7c-2.9,0-6.4,1.2-7.6,2.2v16.2
		c0,0.7,0,1,0.7,1.2l4.1,0.7c0,0.2,0,1.9-0.2,2.1h-12.4c0-0.7-0.2-1.7,0-1.9l2.1-1c1-0.2,1.7-1.9,1.7-2.6v-16.5h-4.8v-2.2
		c1.7-0.2,4.8-1,6.9-1c1.2,0,1.7,0.2,1.7,1.7v1.2c1.9-1.2,4.8-3.6,9.3-3.6c6.9,0,7.6,3.6,7.6,8.6v4.8l0.2,8.8c0,0.7,0,0.7,0.7,0.7
		l3.8,0.7C197.5,395.4,197.5,396.9,197.2,397.4L197.2,397.4z M200.6,395.4l2.9-1c0.7-0.2,1.7-1.7,1.7-2.6v-16.5h-4.8v-2.1
		c1.7-0.2,4.8-1,6.9-1c1.2,0,1.9,0.2,1.9,1.7V394c0,0.7,0.2,1,0.7,1l4.1,0.7c0,0.2,0,1.9-0.2,2.2h-13.1L200.6,395.4L200.6,395.4z
		 M218.2,377c-0.2-1-1.7-2.2-2.6-2.9V372h10.3c0,0.7,0,1.9-0.2,2.6h-3.1l6,18.2l5.7-14.6c0.2-0.2,0.2-1,0.2-1.2c0-1-0.2-1.7-1.2-1.9
		l-1.2-0.7c0-0.7,0-1.7,0.2-2.1h8.4v1.9c-0.7,0.7-1.9,1.2-2.9,3.8l-7.9,19.8l-3.1,1L218.2,377L218.2,377z M246.2,384.9
		c0.2,8.4,4.1,9.3,9.3,9.3c1.9,0,4.5-0.2,6.4-0.7l0.7,2.6c-1.7,1-5,1.9-8.4,1.9c-7.9,0-12.4-2.2-12.4-12.7c0-7.6,4.5-13.6,11.5-13.6
		s9.5,4.8,9.5,12.2v1.2C262.6,384.9,246.2,384.9,246.2,384.9L246.2,384.9z M252.9,374.2c-3.6,0-6.4,2.9-6.7,7.9h12.2
		C258.3,377,256.9,374.2,252.9,374.2z M284.8,376.1c-0.7-0.2-1.7-0.7-2.9-0.7c-3.1,0-5.5,0.7-6.7,1.9v6.9l0.2,8.4
		c0,0.7,0,1.2,0.7,1.2l4.8,0.7c0,0.2,0,1.9-0.2,2.1h-13.4c0-0.7-0.2-1.7-0.2-1.9l2.1-1.2c0.7-0.2,1.7-1.7,1.7-3.6v-15.5h-4.8v-2.1
		c1.7-0.2,4.8-1,6.9-1c1.2,0,1.9,0.2,1.9,1.7v1.9c1.2-1.9,4.1-3.8,7.4-3.8c1.7,0,2.6,0.2,3.1,0.2L284.8,376.1L284.8,376.1z
		 M296.3,397.8c-3.6,0-6-0.7-8.3-1.7l0.2-7.4h2.1c0,3.1,2.1,6,6,6c2.9,0,5.5-1,5.5-3.6c0-2.1-1.9-3.1-6-4.8
		c-3.6-1.2-7.4-3.6-7.4-8.4s4.1-6.9,8.8-6.9c2.6,0,5,0.7,7.4,1.7l-0.7,6l-1.7-0.2c-0.2-2.9-2.9-4.8-5.7-4.8c-2.9,0-4.5,1.7-4.5,3.1
		c0,2.9,2.9,3.8,5.7,5c3.6,1.7,7.6,3.6,7.6,7.9C305.8,396.2,301.1,397.8,296.3,397.8L296.3,397.8z M310.1,395.4l2.9-1
		c0.7-0.2,1.7-1.7,1.7-2.6v-16.5h-4.8v-2.1c1.7-0.2,4.8-1,6.9-1c1.2,0,1.9,0.2,1.9,1.7V394c0,0.7,0.2,1,0.7,1l4.1,0.7
		c0,0.2,0,1.9-0.2,2.2h-13.1L310.1,395.4L310.1,395.4z M344.3,397.1c-1.2,0.7-3.8,1-5.5,1c-6,0-8.4-1.7-8.4-7.4v-15.3h-3.8v-1.7
		l7.4-6.7h0.7v5h8.6v3.1h-8.6v15.3c0,3.6,1.7,4.1,4.8,4.1c1.2,0,2.9-0.2,4.1-0.7L344.3,397.1L344.3,397.1z M365,397.8
		c-3.1,0-3.6-2.2-3.6-3.8c-1,1-4.1,4.1-8.8,4.1c-3.6,0-6-1.9-6-6c0-5,4.5-7.4,8.8-7.9c2.9-0.2,6-0.7,6-0.7v-3.8
		c0-3.8-1.9-4.8-6.4-4.8c-1.9,0-4.5,0.2-6,1l-0.7-2.6c2.6-1,5.5-1.7,7.9-1.7c3.6,0,9.3,0,9.3,6.7v6.5l0.2,9.3h5l0.2,1.9
		C370.3,396.4,366.4,397.8,365,397.8z M361.4,385.7c0,0-3.6,0.2-5.7,1c-3.1,0.7-4.8,2.2-4.8,4.5c0,1.2,1,2.9,3.6,2.9
		c2.9,0,6.9-2.2,6.9-2.2L361.4,385.7L361.4,385.7z M373.6,395.4l2.9-1c0.7-0.2,1.7-1.7,1.7-2.6v-16.5h-4.8v-2.1c1.7-0.2,4.8-1,6.9-1
		c1.2,0,1.9,0.2,1.9,1.7V394c0,0.7,0.2,1,0.7,1l4.1,0.7c0,0.2,0,1.9-0.2,2.2h-13.1C373.8,396.9,373.6,396.2,373.6,395.4L373.6,395.4
		z M408.4,376.1c-0.7-0.2-1.7-0.7-2.9-0.7c-3.1,0-5.5,0.7-6.7,1.9v6.9l0.2,8.4c0,0.7,0,1.2,0.7,1.2l4.8,0.7c0,0.2,0,1.9-0.2,2.1H391
		c0-0.7-0.2-1.7-0.2-1.9l2.1-1.2c0.7-0.2,1.7-1.7,1.7-3.6v-15.5h-4.8v-2.1c1.7-0.2,4.8-1,6.9-1c1.2,0,1.9,0.2,1.9,1.7v1.9
		c1.2-1.9,4.1-3.8,7.4-3.8c1.7,0,2.6,0.2,3.1,0.2L408.4,376.1L408.4,376.1z"/>
	<circle class="st2" cx="58.1" cy="364.4" r="3.8"/>
	<circle class="st2" cx="207" cy="364.4" r="3.8"/>
	<circle class="st2" cx="316.6" cy="364.4" r="3.8"/>
	<circle class="st2" cx="380.3" cy="364.4" r="3.8"/>
</g>
<path class="st2" d="M332.4,307.7c-31.5,0-47.5-15.6-47.5-46.3c0-28.9,18.7-48,47.1-48c13.8,0,19.5,2.2,24,4l1.8,0.4v19.6h-6.2
	c-3.1-8.5-7.6-15.6-20.4-15.6c-21.3,0-33.8,13.8-33.8,37.4c0,23.6,13.3,37.4,36.4,37.4c11.1,0,16.9-4,20.9-4.9l3.1,7.6
	C358.2,299.7,348.4,307.7,332.4,307.7L332.4,307.7z M219.6,163.6h-69.7c-0.4-1.8-0.4-4.9-0.4-6.7l8.9-2.2c3.1-0.5,5.3-4,5.3-7.6
	L164,128V87.5c0-3.1-1.3-7.1-4-8.4l-8.9-2.2c0-1.3,0-4,0.5-5.3h34.2c0.4,1.8,0.4,4,0.4,5.8l-6.2,1.8c-4,0-5.3,0.4-5.3,4.9v44
	l0.4,26.7l24.4-0.4c8,0,13.3-5.8,15.6-12.9l5.8,1.3L219.6,163.6L219.6,163.6z M256,46.6v142.3h142.2V46.6H256z M367.5,80
	c-1.8,0.4-3.1,1.3-3.1,5.3v44c0,26.7-19.5,36-36,36c-17.3,0-36-6.7-36-32.5V86.2c0-3.1-1.3-5.8-4-6.7l-8-3.1c0-1.3,0-3.6,0.4-5.3
	h34.6c0.4,1.8,0.4,4,0,5.8l-7.5,1.8c-2.2,0.5-3.1,1.8-3.1,4v47.6c0,18.2,12.9,24.5,24,24.5c13.8,0,23.1-7.1,23.1-28V87.5
	c0-4-1.3-7.1-7.1-8.9l-5.8-1.8v-5.3h33.8c0.4,1.8,0.4,3.6,0.4,5.3L367.5,80L367.5,80z M113.8,188.9v142.3H256V188.9H113.8z
	 M235.6,304.6h-30.2c0-1.8-0.5-4-0.5-5.3l5.3-1.8c4-1.3,4.4-4.9,4.4-8.9c0-1.8,0-3.1-0.4-4.9l-1.3-42.3l-0.4-6.7h-0.9l-25.3,53.4h-8
	l-22.7-54.3h0.4v6.7l-4.4,50.3c-0.4,2.2,0,3.6,1.3,4l11.6,3.6c0,1.3,0,4.9-0.4,5.8h-31.1c0-1.8-0.4-3.6,0-5.3l4.4-2.2
	c3.1-1.8,5.8-5.8,6.2-9.3l5.8-56.5c0.4-3.1-1.3-5.8-3.1-7.1l-7.6-2.2c0-1.3,0-3.6,0.4-5.3h23.1l22.2,56.5h1.3l25.3-56.5h22.2
	c0.4,1.8,0.4,3.1,0.4,4.9l-5.8,2.2c-2.2,1.3-5.3,4-4.4,10.2l4.4,56.9c0.4,3.1,2.2,5.3,4.4,6.7l5.3,3.1
	C236.5,299.7,236.5,303.3,235.6,304.6z"/>
<path class="st2" d="M1148,816.5"/>
</svg>
