<svg id="AMDS" xmlns="http://www.w3.org/2000/svg" viewBox="-30 -35 420 420" width="512px" height="512px">
    <defs>
        <style>
            .cls-1{fill:#023843;}.cls-2,.cls-7{font-size:9.74px;font-family:Calibri-Bold,
            Calibri;font-weight:700;}.cls-16,.cls-2,.cls-7{fill:#ef791b;}.cls-3{letter-spacing:0.02em;}.cls-4{letter-spacing:-0.03em;}.cls-5,.cls-7{letter-spacing:0.02em;}.cls-6{letter-spacing:-0.03em;}.cls-8{letter-spacing:0em;}.cls-9{letter-spacing:-0.03em;}.cls-10{letter-spacing:0.02em;}.cls-11{letter-spacing:-0.07em;}.cls-12{letter-spacing:-0.01em;}.cls-13{letter-spacing:0.04em;}.cls-14{letter-spacing:-0.02em;}.cls-15{letter-spacing:-0.07em;}</style>
    </defs>
    <path class="cls-1"
        d="M464.27,351.48a1.36,1.36,0,0,1,1.43-1h2.06a1.36,1.36,0,0,1,1.43,1l4.76,14a1.14,1.14,0,0,1-.05,1.05,1.12,1.12,0,0,1-1,.4h-1.53a1.37,1.37,0,0,1-1.42-1.05l-.69-2.4h-5.13l-.69,2.4a1.33,1.33,0,0,1-1.4,1.05h-1.52a1.09,1.09,0,0,1-1-.4,1.11,1.11,0,0,1-.06-1.05Zm4.07,8.74-.92-3.2c-.09-.31-.19-.7-.3-1.16s-.2-.87-.27-1.19l-.1-.47h0c-.25,1.19-.47,2.13-.67,2.82l-1,3.2Z"
        transform="translate(-459.16 -38.84)" />
    <path class="cls-1"
        d="M475.21,356.31a1.12,1.12,0,0,1,1.27-1.27h1.29a1.11,1.11,0,0,1,1.24,1.27v.2l0,.31h0a4.07,4.07,0,0,1,3.53-2.05,3.83,3.83,0,0,1,2,.51,3.32,3.32,0,0,1,1.32,1.49h0a4.6,4.6,0,0,1,3.8-2,3.79,3.79,0,0,1,2.8,1.06,4.72,4.72,0,0,1,1,3.38v6.41a1.12,1.12,0,0,1-1.27,1.27h-1.45a1.12,1.12,0,0,1-1.27-1.27v-5.75a2.49,2.49,0,0,0-.19-1.11.74.74,0,0,0-.73-.38,1.94,1.94,0,0,0-1.08.29,1.88,1.88,0,0,0-.7.8,4.39,4.39,0,0,0-.37,1.11,6.61,6.61,0,0,0-.12,1.3v3.74a1.12,1.12,0,0,1-1.27,1.27h-1.44a1.12,1.12,0,0,1-1.27-1.27v-5.75a2.69,2.69,0,0,0-.19-1.12.73.73,0,0,0-.72-.37,1.94,1.94,0,0,0-1.12.31,1.89,1.89,0,0,0-.71.84,5.13,5.13,0,0,0-.35,1.11,7,7,0,0,0-.1,1.24v3.74a1.12,1.12,0,0,1-1.27,1.27h-1.45a1.12,1.12,0,0,1-1.27-1.27Z"
        transform="translate(-459.16 -38.84)" />
    <path class="cls-1"
        d="M495.14,365.32a1.38,1.38,0,0,1,.26-1l.34-.53a1.2,1.2,0,0,1,.75-.57,1.72,1.72,0,0,1,1,.2l.66.29a5.54,5.54,0,0,0,.69.21,3.67,3.67,0,0,0,.91.12q1.08,0,1.08-.66a.58.58,0,0,0-.31-.48,2.78,2.78,0,0,0-.79-.36l-1.08-.34a8.78,8.78,0,0,1-1.18-.47,4.94,4.94,0,0,1-1.08-.68,2.92,2.92,0,0,1-.8-1,3.6,3.6,0,0,1-.3-1.51,3.18,3.18,0,0,1,1.39-2.75,5.85,5.85,0,0,1,3.53-1,7.71,7.71,0,0,1,3.36.76,1.12,1.12,0,0,1,.63.71,1.39,1.39,0,0,1-.17,1l-.28.55a1.17,1.17,0,0,1-.68.67,1.42,1.42,0,0,1-1-.12,6.37,6.37,0,0,0-2-.46c-.7,0-1.05.21-1.05.62a.56.56,0,0,0,.3.47,3.17,3.17,0,0,0,.8.36l1.08.32a8.21,8.21,0,0,1,1.18.46,5.38,5.38,0,0,1,1.08.66,2.7,2.7,0,0,1,.8,1,3.68,3.68,0,0,1-1,4.28,5.4,5.4,0,0,1-3.55,1.1,7.68,7.68,0,0,1-3.94-1.09A1.06,1.06,0,0,1,495.14,365.32Z"
        transform="translate(-459.16 -38.84)" />
    <path class="cls-1"
        d="M507.1,358.36h-.34a1.1,1.1,0,0,1-1.24-1.26v-.59a1.11,1.11,0,0,1,1.26-1.25h.44v-2.15a1.12,1.12,0,0,1,1.27-1.26h1.33a1.11,1.11,0,0,1,1.26,1.26v2.15h1.22a1.11,1.11,0,0,1,1.27,1.25v.59a1.1,1.1,0,0,1-1.24,1.26h-1.25V362a1.36,1.36,0,0,0,.39,1.05,1.74,1.74,0,0,0,1,.44,1.77,1.77,0,0,1,1,.36,1.17,1.17,0,0,1,.28.9v1.05a1.11,1.11,0,0,1-.4,1,2.15,2.15,0,0,1-1.23.28,6.91,6.91,0,0,1-1.19-.1,6,6,0,0,1-1.32-.41,4.75,4.75,0,0,1-1.23-.77,3.44,3.44,0,0,1-.9-1.25,4.27,4.27,0,0,1-.36-1.79Z"
        transform="translate(-459.16 -38.84)" />
    <path class="cls-1"
        d="M515.41,357.82a5.53,5.53,0,0,1,2.15-2.22,6.39,6.39,0,0,1,3.28-.83,5.64,5.64,0,0,1,3,.76,4.86,4.86,0,0,1,1.89,2,6.47,6.47,0,0,1,.62,2.87,1.3,1.3,0,0,1-.38.9,1.26,1.26,0,0,1-.95.41h-6.23a2.45,2.45,0,0,0,1,1.57,2.93,2.93,0,0,0,1.77.55,4.82,4.82,0,0,0,2.17-.55,1.46,1.46,0,0,1,1-.17,1.24,1.24,0,0,1,.72.65l.32.6a1.12,1.12,0,0,1-.44,1.71,8,8,0,0,1-4.06,1.07,7.2,7.2,0,0,1-2.8-.52,5.57,5.57,0,0,1-2-1.4,6.16,6.16,0,0,1-1.23-2,6.28,6.28,0,0,1-.44-2.31A6.64,6.64,0,0,1,515.41,357.82Zm7,1.64a1.82,1.82,0,0,0-.45-1.26,1.48,1.48,0,0,0-1.18-.51,1.69,1.69,0,0,0-1.27.49,2.59,2.59,0,0,0-.64,1.28Z"
        transform="translate(-459.16 -38.84)" />
    <path class="cls-1"
        d="M527.94,356.31a1.12,1.12,0,0,1,1.27-1.27h1.29a1.12,1.12,0,0,1,1.26,1.27V357l0,.74h0a4.93,4.93,0,0,1,1.23-1.95,2.66,2.66,0,0,1,1.92-.9,1,1,0,0,1,.83.31,1.47,1.47,0,0,1,.25,1v1.28a1.12,1.12,0,0,1-1.26,1.27,2.41,2.41,0,0,0-2.08,1,4.26,4.26,0,0,0-.73,2.54v3.33a1.12,1.12,0,0,1-1.26,1.27h-1.45a1.12,1.12,0,0,1-1.27-1.27Z"
        transform="translate(-459.16 -38.84)" />
    <path class="cls-1"
        d="M538.05,356.47a5,5,0,0,1,3.89-1.7,6,6,0,0,1,1.24.12,3.8,3.8,0,0,1,.9.29c.21.12.4.24.56.35a2,2,0,0,1,.32.29l.09.12h.05a4.19,4.19,0,0,1,0-.53v-3.7a1.11,1.11,0,0,1,1.26-1.26h1.45a1.11,1.11,0,0,1,1.26,1.26v13.91a1.12,1.12,0,0,1-1.26,1.27h-1.2c-.84,0-1.27-.38-1.27-1.14v-.15l0-.16h-.06l-.12.18a3.64,3.64,0,0,1-.39.42,3.74,3.74,0,0,1-.66.53,4.41,4.41,0,0,1-1,.42,4.59,4.59,0,0,1-1.3.18,4.8,4.8,0,0,1-3.86-1.72,6.65,6.65,0,0,1-1.47-4.49A6.51,6.51,0,0,1,538.05,356.47Zm3.13,6.61a2,2,0,0,0,1.68.8,2.16,2.16,0,0,0,1.65-.74,3.13,3.13,0,0,0,.68-2.18,3.33,3.33,0,0,0-.61-2,2,2,0,0,0-1.72-.84,2.08,2.08,0,0,0-1.64.76,3,3,0,0,0-.67,2.07A3.32,3.32,0,0,0,541.18,363.08Z"
        transform="translate(-459.16 -38.84)" />
    <path class="cls-1"
        d="M551,361.92a3.6,3.6,0,0,1,1.09-1.17,6.51,6.51,0,0,1,1.57-.73,10.9,10.9,0,0,1,1.79-.4,15.51,15.51,0,0,1,1.83-.11h.33v-.21a1.1,1.1,0,0,0-.47-1A2.1,2.1,0,0,0,556,358a5.08,5.08,0,0,0-2.15.54,1.15,1.15,0,0,1-1.69-.56l-.28-.57a1.12,1.12,0,0,1,.5-1.7,9.51,9.51,0,0,1,4-.92,5.52,5.52,0,0,1,3.87,1.29,4.53,4.53,0,0,1,1.42,3.54v6a1.12,1.12,0,0,1-1.27,1.27h-1.1A1.13,1.13,0,0,1,558,365.6v-.09l0-.23h0a2.51,2.51,0,0,1-.14.21,4.81,4.81,0,0,1-.41.45,4.18,4.18,0,0,1-.69.57,3.91,3.91,0,0,1-1,.46,4.16,4.16,0,0,1-1.27.2,3.84,3.84,0,0,1-2.78-1,3.41,3.41,0,0,1-1.09-2.59A3.14,3.14,0,0,1,551,361.92Zm3.81,2a1.13,1.13,0,0,0,.83.29,1.88,1.88,0,0,0,1.43-.67,2.07,2.07,0,0,0,.6-1.42v-.33h-.37a6,6,0,0,0-1,.07,5.17,5.17,0,0,0-.88.23,1.61,1.61,0,0,0-.69.44,1,1,0,0,0,0,1.39Z"
        transform="translate(-459.16 -38.84)" />
    <path class="cls-1"
        d="M563.77,356.31A1.12,1.12,0,0,1,565,355h1.3a1.1,1.1,0,0,1,1.23,1.27v.2l0,.31h0a4.08,4.08,0,0,1,3.53-2.05,3.8,3.8,0,0,1,2,.51,3.32,3.32,0,0,1,1.32,1.49h.05a4.29,4.29,0,0,1,1.53-1.41,4.46,4.46,0,0,1,2.26-.59,3.79,3.79,0,0,1,2.8,1.06,4.72,4.72,0,0,1,1,3.38v6.41a1.12,1.12,0,0,1-1.27,1.27H579.4a1.12,1.12,0,0,1-1.27-1.27v-5.75a2.47,2.47,0,0,0-.2-1.11.72.72,0,0,0-.72-.38,1.9,1.9,0,0,0-1.79,1.09,4.83,4.83,0,0,0-.37,1.11,7.5,7.5,0,0,0-.11,1.3v3.74a1.12,1.12,0,0,1-1.27,1.27h-1.45a1.12,1.12,0,0,1-1.27-1.27v-5.75a2.54,2.54,0,0,0-.19-1.12.73.73,0,0,0-.72-.37,2,2,0,0,0-1.12.31,1.87,1.87,0,0,0-.7.84,4.22,4.22,0,0,0-.35,1.11,7,7,0,0,0-.11,1.24v3.74a1.12,1.12,0,0,1-1.27,1.27H565a1.12,1.12,0,0,1-1.27-1.27Z"
        transform="translate(-459.16 -38.84)" />
    <path class="cls-1"
        d="M591.12,351.66a1.17,1.17,0,0,1,1.3-1.21h2.08a1.37,1.37,0,0,1,1.43,1l2,5.91c.11.31.24.7.38,1.15s.25.83.33,1.12l.12.45h.05c.3-1.11.58-2,.83-2.72l2-5.91a1.36,1.36,0,0,1,1.43-1h2.06a1.18,1.18,0,0,1,1.32,1.21l1.12,13.92a1.08,1.08,0,0,1-1.19,1.31H605a1.19,1.19,0,0,1-1.32-1.22l-.41-6.18c0-.37,0-.78,0-1.24s0-.83,0-1.11l0-.41h0c-.36,1.15-.67,2.07-.92,2.76l-1.36,3.74a1.43,1.43,0,0,1-1.45,1h-1.29a1.44,1.44,0,0,1-1.45-1l-1.34-3.74-.92-2.76h-.05a21.13,21.13,0,0,1,0,2.76l-.41,6.18a1.19,1.19,0,0,1-1.32,1.22h-1.51a1.09,1.09,0,0,1-1.21-1.31Z"
        transform="translate(-459.16 -38.84)" />
    <path class="cls-1"
        d="M609.69,357.82a5.53,5.53,0,0,1,2.15-2.22,6.39,6.39,0,0,1,3.28-.83,5.7,5.7,0,0,1,3,.76,4.9,4.9,0,0,1,1.88,2,6.47,6.47,0,0,1,.62,2.87,1.3,1.3,0,0,1-.38.9,1.26,1.26,0,0,1-1,.41H613a2.45,2.45,0,0,0,1,1.57,2.93,2.93,0,0,0,1.77.55,4.82,4.82,0,0,0,2.17-.55,1.46,1.46,0,0,1,1-.17,1.24,1.24,0,0,1,.72.65l.32.6a1.12,1.12,0,0,1-.44,1.71,8,8,0,0,1-4.06,1.07,7.2,7.2,0,0,1-2.8-.52,5.57,5.57,0,0,1-2-1.4,6.16,6.16,0,0,1-1.23-2A6.28,6.28,0,0,1,609,361,6.64,6.64,0,0,1,609.69,357.82Zm7,1.64a1.86,1.86,0,0,0-.44-1.26,1.51,1.51,0,0,0-1.19-.51,1.69,1.69,0,0,0-1.27.49,2.51,2.51,0,0,0-.64,1.28Z"
        transform="translate(-459.16 -38.84)" />
    <path class="cls-1"
        d="M623.1,356.47a5,5,0,0,1,3.9-1.7,6,6,0,0,1,1.24.12,3.8,3.8,0,0,1,.9.29c.21.12.4.24.56.35a2,2,0,0,1,.32.29l.09.12h0a4,4,0,0,1,0-.53v-3.7a1.12,1.12,0,0,1,1.27-1.26h1.45a1.11,1.11,0,0,1,1.26,1.26v13.91a1.12,1.12,0,0,1-1.26,1.27h-1.2c-.85,0-1.27-.38-1.27-1.14v-.15l0-.16h-.06l-.12.18a3.64,3.64,0,0,1-.39.42,3.74,3.74,0,0,1-.66.53,4.41,4.41,0,0,1-1,.42,4.59,4.59,0,0,1-1.3.18,4.8,4.8,0,0,1-3.86-1.72A6.65,6.65,0,0,1,621.6,361,6.55,6.55,0,0,1,623.1,356.47Zm3.14,6.61a2,2,0,0,0,1.68.8,2.16,2.16,0,0,0,1.65-.74,3.13,3.13,0,0,0,.68-2.18,3.27,3.27,0,0,0-.62-2,2,2,0,0,0-1.71-.84,2.08,2.08,0,0,0-1.64.76,3,3,0,0,0-.67,2.07A3.32,3.32,0,0,0,626.24,363.08Z"
        transform="translate(-459.16 -38.84)" />
    <path class="cls-1"
        d="M636.47,356.31a1.12,1.12,0,0,1,1.27-1.27h1.45a1.12,1.12,0,0,1,1.27,1.27v9.31a1.12,1.12,0,0,1-1.27,1.27h-1.45a1.12,1.12,0,0,1-1.27-1.27Zm0-4v-.58a1.11,1.11,0,0,1,1.26-1.26h1.36a1.12,1.12,0,0,1,1.27,1.26v.58a1.12,1.12,0,0,1-1.27,1.26h-1.36A1.11,1.11,0,0,1,636.52,352.29Z"
        transform="translate(-459.16 -38.84)" />
    <path class="cls-1"
        d="M642.57,358.65a6.49,6.49,0,0,1,1.26-2,5.76,5.76,0,0,1,2.08-1.39,7.53,7.53,0,0,1,2.82-.52,6.77,6.77,0,0,1,3.82,1.06,1,1,0,0,1,.53.77,1.33,1.33,0,0,1-.26,1l-.38.59a1.11,1.11,0,0,1-.74.59,1.5,1.5,0,0,1-1-.22,4,4,0,0,0-1.75-.43,2.63,2.63,0,0,0-2.08.84,2.88,2.88,0,0,0-.75,2,3,3,0,0,0,.79,2,2.74,2.74,0,0,0,2.19.9,4.12,4.12,0,0,0,2.13-.68c.79-.42,1.36-.28,1.73.44l.29.58a1.18,1.18,0,0,1-.34,1.72,7.38,7.38,0,0,1-4.21,1.25,7.51,7.51,0,0,1-2.81-.51,5.85,5.85,0,0,1-2.08-1.37,6.05,6.05,0,0,1-1.27-2,6.41,6.41,0,0,1-.44-2.35A6.28,6.28,0,0,1,642.57,358.65Z"
        transform="translate(-459.16 -38.84)" />
    <path class="cls-1"
        d="M654.58,361.92a3.5,3.5,0,0,1,1.09-1.17,6.34,6.34,0,0,1,1.57-.73,10.68,10.68,0,0,1,1.79-.4,15.21,15.21,0,0,1,1.82-.11h.34v-.21a1.12,1.12,0,0,0-.47-1,2.16,2.16,0,0,0-1.21-.32,5,5,0,0,0-2.14.54,1.16,1.16,0,0,1-1.7-.56l-.28-.57a1.13,1.13,0,0,1,.51-1.7,9.43,9.43,0,0,1,4-.92,5.54,5.54,0,0,1,3.88,1.29,4.56,4.56,0,0,1,1.41,3.54v6a1.12,1.12,0,0,1-1.26,1.27H662.8a1.13,1.13,0,0,1-1.26-1.29v-.09l0-.23h0a2.06,2.06,0,0,1-.13.21c-.06.08-.2.23-.41.45a4.64,4.64,0,0,1-.69.57,4.28,4.28,0,0,1-1,.46,4.23,4.23,0,0,1-1.28.2,3.85,3.85,0,0,1-2.78-1,3.43,3.43,0,0,1-1.08-2.59A3.14,3.14,0,0,1,654.58,361.92Zm3.8,2a1.13,1.13,0,0,0,.83.29,1.88,1.88,0,0,0,1.43-.67,2.07,2.07,0,0,0,.6-1.42v-.33h-.37a5.9,5.9,0,0,0-1,.07,5.28,5.28,0,0,0-.89.23,1.64,1.64,0,0,0-.68.44.92.92,0,0,0-.26.66A1,1,0,0,0,658.38,363.91Z"
        transform="translate(-459.16 -38.84)" />
    <path class="cls-1"
        d="M667.27,351.71a1.12,1.12,0,0,1,1.27-1.26H670a1.12,1.12,0,0,1,1.27,1.26v10.62c0,.73.22,1.13.66,1.18a1,1,0,0,1,.92,1.08v1.13a1.13,1.13,0,0,1-1.29,1.28,7.75,7.75,0,0,1-1.24-.08,4.22,4.22,0,0,1-1.14-.35,2.74,2.74,0,0,1-1-.75,3.72,3.72,0,0,1-.65-1.31,6.86,6.86,0,0,1-.26-2Z"
        transform="translate(-459.16 -38.84)" />
    <path class="cls-1"
        d="M680.54,351.71a1.12,1.12,0,0,1,1.27-1.26h4.58a8.61,8.61,0,0,1,6.2,2.17,9.11,9.11,0,0,1,0,12.07,8.54,8.54,0,0,1-6.19,2.2h-4.58a1.12,1.12,0,0,1-1.27-1.27Zm5.68,11.73a4.39,4.39,0,0,0,3.31-1.23,5,5,0,0,0,1.18-3.57,4.8,4.8,0,0,0-1.2-3.52,4.38,4.38,0,0,0-3.29-1.22h-1.65v9.54Z"
        transform="translate(-459.16 -38.84)" />
    <path class="cls-1"
        d="M696.09,361.92a3.57,3.57,0,0,1,1.08-1.17,6.41,6.41,0,0,1,1.58-.73,10.79,10.79,0,0,1,1.78-.4,15.51,15.51,0,0,1,1.83-.11h.33v-.21a1.1,1.1,0,0,0-.47-1A2.1,2.1,0,0,0,701,358a5,5,0,0,0-2.14.54,1.16,1.16,0,0,1-1.7-.56l-.28-.57a1.13,1.13,0,0,1,.51-1.7,9.43,9.43,0,0,1,4-.92,5.56,5.56,0,0,1,3.88,1.29,4.56,4.56,0,0,1,1.41,3.54v6a1.12,1.12,0,0,1-1.27,1.27h-1.1A1.13,1.13,0,0,1,703,365.6v-.09l0-.23H703a2.06,2.06,0,0,1-.13.21c-.06.08-.2.23-.41.45a5.21,5.21,0,0,1-.69.57,4.28,4.28,0,0,1-2.26.66,3.85,3.85,0,0,1-2.78-1,3.43,3.43,0,0,1-1.08-2.59A3,3,0,0,1,696.09,361.92Zm3.8,2a1.13,1.13,0,0,0,.83.29,1.88,1.88,0,0,0,1.43-.67,2.07,2.07,0,0,0,.6-1.42v-.33h-.37a5.82,5.82,0,0,0-1,.07,5,5,0,0,0-.89.23,1.68,1.68,0,0,0-.69.44,1,1,0,0,0,0,1.39Z"
        transform="translate(-459.16 -38.84)" />
    <path class="cls-1"
        d="M709.48,358.36h-.35a1.11,1.11,0,0,1-1.24-1.26v-.59a1.11,1.11,0,0,1,1.26-1.25h.44v-2.15a1.12,1.12,0,0,1,1.27-1.26h1.34a1.11,1.11,0,0,1,1.25,1.26v2.15h1.23a1.11,1.11,0,0,1,1.27,1.25v.59a1.11,1.11,0,0,1-1.25,1.26h-1.25V362a1.36,1.36,0,0,0,.39,1.05,1.74,1.74,0,0,0,1,.44,1.7,1.7,0,0,1,1,.36,1.17,1.17,0,0,1,.28.9v1.05a1.11,1.11,0,0,1-.4,1,2.14,2.14,0,0,1-1.22.28,7.11,7.11,0,0,1-1.2-.1,5.76,5.76,0,0,1-1.31-.41,5,5,0,0,1-1.24-.77,3.43,3.43,0,0,1-.89-1.25,4.27,4.27,0,0,1-.36-1.79Z"
        transform="translate(-459.16 -38.84)" />
    <path class="cls-1"
        d="M717.47,361.92a3.5,3.5,0,0,1,1.09-1.17,6.34,6.34,0,0,1,1.57-.73,10.68,10.68,0,0,1,1.79-.4,15.21,15.21,0,0,1,1.82-.11h.34v-.21a1.12,1.12,0,0,0-.47-1,2.16,2.16,0,0,0-1.21-.32,5,5,0,0,0-2.14.54,1.16,1.16,0,0,1-1.7-.56l-.28-.57a1.13,1.13,0,0,1,.51-1.7,9.43,9.43,0,0,1,4-.92,5.53,5.53,0,0,1,3.88,1.29,4.56,4.56,0,0,1,1.41,3.54v6a1.12,1.12,0,0,1-1.26,1.27h-1.11a1.13,1.13,0,0,1-1.26-1.29v-.09l0-.23h-.05a2.06,2.06,0,0,1-.13.21c-.06.08-.2.23-.41.45a4.18,4.18,0,0,1-.69.57,4.28,4.28,0,0,1-1,.46,4.23,4.23,0,0,1-1.28.2,3.85,3.85,0,0,1-2.78-1,3.43,3.43,0,0,1-1.08-2.59A3.14,3.14,0,0,1,717.47,361.92Zm3.8,2a1.15,1.15,0,0,0,.83.29,1.87,1.87,0,0,0,1.43-.67,2.07,2.07,0,0,0,.6-1.42v-.33h-.37a5.9,5.9,0,0,0-1,.07,5.28,5.28,0,0,0-.89.23,1.64,1.64,0,0,0-.68.44.92.92,0,0,0-.26.66A1,1,0,0,0,721.27,363.91Z"
        transform="translate(-459.16 -38.84)" />
    <path class="cls-1"
        d="M735.66,365.09a.92.92,0,0,1-.12-.55,1.56,1.56,0,0,1,.31-.75l.72-1a1.11,1.11,0,0,1,.75-.55,1.55,1.55,0,0,1,1,.25l.36.21a4.05,4.05,0,0,0,.53.28,6.17,6.17,0,0,0,.57.24,3.92,3.92,0,0,0,.74.22,5.29,5.29,0,0,0,.8.06,2.14,2.14,0,0,0,1.29-.32,1,1,0,0,0,.45-.83,1.12,1.12,0,0,0-.25-.69,2.33,2.33,0,0,0-.67-.55c-.28-.16-.6-.32-1-.49l-1.15-.49c-.4-.18-.8-.36-1.21-.56a7.57,7.57,0,0,1-1.15-.71,5.88,5.88,0,0,1-1-.9,3.54,3.54,0,0,1-.67-1.19,4.37,4.37,0,0,1-.25-1.52,4.51,4.51,0,0,1,1.66-3.64,6.27,6.27,0,0,1,4.2-1.4,8.6,8.6,0,0,1,2.55.37,7,7,0,0,1,1.9.85,1.2,1.2,0,0,1,.38,1.72l-.55,1.09a1.53,1.53,0,0,1-.37.49.63.63,0,0,1-.43.18,1.27,1.27,0,0,1-.44-.05,2.78,2.78,0,0,1-.48-.19c-.35-.18-.62-.3-.8-.38a5.8,5.8,0,0,0-.79-.25,4.44,4.44,0,0,0-1-.13,2.37,2.37,0,0,0-1.36.32,1,1,0,0,0-.44.83,1.09,1.09,0,0,0,.25.7,2.08,2.08,0,0,0,.67.55,8,8,0,0,0,1,.47l1.15.48c.4.17.8.34,1.2.53a8,8,0,0,1,1.15.69,5.52,5.52,0,0,1,1,.89,3.57,3.57,0,0,1,.67,1.18,4.43,4.43,0,0,1,.25,1.53,5,5,0,0,1-.39,2,4.84,4.84,0,0,1-2.93,2.75,7.11,7.11,0,0,1-2.45.41,8.94,8.94,0,0,1-3-.51,8.14,8.14,0,0,1-2.22-1.13A2.13,2.13,0,0,1,735.66,365.09Z"
        transform="translate(-459.16 -38.84)" />
    <path class="cls-1"
        d="M748.55,358.65a6.49,6.49,0,0,1,1.26-2,5.71,5.71,0,0,1,2.09-1.39,7.44,7.44,0,0,1,2.81-.52,6.77,6.77,0,0,1,3.82,1.06,1.09,1.09,0,0,1,.54.77,1.39,1.39,0,0,1-.27,1l-.38.59a1.09,1.09,0,0,1-.74.59,1.5,1.5,0,0,1-1-.22,4,4,0,0,0-1.75-.43,2.64,2.64,0,0,0-2.08.84,2.88,2.88,0,0,0-.75,2,3,3,0,0,0,.79,2,2.74,2.74,0,0,0,2.19.9,4.12,4.12,0,0,0,2.13-.68c.79-.42,1.36-.28,1.73.44l.29.58a1.19,1.19,0,0,1-.33,1.72,7.82,7.82,0,0,1-7,.74,5.8,5.8,0,0,1-2.09-1.37,6.05,6.05,0,0,1-1.27-2,6.41,6.41,0,0,1-.44-2.35A6.28,6.28,0,0,1,748.55,358.65Z"
        transform="translate(-459.16 -38.84)" />
    <path class="cls-1"
        d="M760.94,356.31a1.12,1.12,0,0,1,1.27-1.27h1.44a1.12,1.12,0,0,1,1.27,1.27v9.31a1.12,1.12,0,0,1-1.27,1.27h-1.44a1.12,1.12,0,0,1-1.27-1.27Zm0-4v-.58a1.11,1.11,0,0,1,1.26-1.26h1.36a1.12,1.12,0,0,1,1.27,1.26v.58a1.12,1.12,0,0,1-1.27,1.26h-1.36A1.11,1.11,0,0,1,761,352.29Z"
        transform="translate(-459.16 -38.84)" />
    <path class="cls-1"
        d="M767.33,357.82a5.53,5.53,0,0,1,2.15-2.22,6.42,6.42,0,0,1,3.28-.83,5.7,5.7,0,0,1,3,.76,4.83,4.83,0,0,1,1.88,2,6.47,6.47,0,0,1,.62,2.87,1.3,1.3,0,0,1-.38.9,1.26,1.26,0,0,1-.94.41h-6.24a2.49,2.49,0,0,0,1,1.57,2.93,2.93,0,0,0,1.77.55,4.82,4.82,0,0,0,2.17-.55,1.47,1.47,0,0,1,1-.17,1.21,1.21,0,0,1,.72.65l.32.6a1.12,1.12,0,0,1-.44,1.71,8,8,0,0,1-4.06,1.07,7.2,7.2,0,0,1-2.8-.52,5.65,5.65,0,0,1-2-1.4,6.34,6.34,0,0,1-1.23-2,6.27,6.27,0,0,1-.43-2.31A6.64,6.64,0,0,1,767.33,357.82Zm7,1.64a1.86,1.86,0,0,0-.44-1.26,1.5,1.5,0,0,0-1.19-.51,1.69,1.69,0,0,0-1.27.49,2.67,2.67,0,0,0-.64,1.28Z"
        transform="translate(-459.16 -38.84)" />
    <path class="cls-1"
        d="M779.86,356.31a1.12,1.12,0,0,1,1.27-1.27h1.29a1.11,1.11,0,0,1,1.24,1.27v.2l0,.31h0a4.16,4.16,0,0,1,3.77-2.05,5.83,5.83,0,0,1,1.68.23,3.88,3.88,0,0,1,1.34.73,3.29,3.29,0,0,1,.92,1.38,6.27,6.27,0,0,1,.32,2.1v6.41a1.12,1.12,0,0,1-1.26,1.27H789a1.12,1.12,0,0,1-1.27-1.27V360a1.85,1.85,0,0,0-.32-1.2,1.25,1.25,0,0,0-1-.37,2.23,2.23,0,0,0-1.92.9,3.77,3.77,0,0,0-.65,2.25v4.09a1.12,1.12,0,0,1-1.27,1.27h-1.45a1.12,1.12,0,0,1-1.27-1.27Z"
        transform="translate(-459.16 -38.84)" />
    <path class="cls-1"
        d="M793.67,358.65a6.28,6.28,0,0,1,1.25-2,5.8,5.8,0,0,1,2.09-1.39,7.46,7.46,0,0,1,2.82-.52,6.82,6.82,0,0,1,3.82,1.06,1.07,1.07,0,0,1,.53.77,1.44,1.44,0,0,1-.26,1l-.39.59a1.1,1.1,0,0,1-.73.59,1.49,1.49,0,0,1-1-.22,4,4,0,0,0-1.76-.43,2.64,2.64,0,0,0-2.08.84,2.88,2.88,0,0,0-.75,2,3,3,0,0,0,.79,2,2.74,2.74,0,0,0,2.19.9,4.12,4.12,0,0,0,2.13-.68c.79-.42,1.37-.28,1.73.44l.3.58a1.18,1.18,0,0,1-.34,1.72,7.82,7.82,0,0,1-7,.74,5.76,5.76,0,0,1-3.35-3.35,6.22,6.22,0,0,1-.45-2.35A6.09,6.09,0,0,1,793.67,358.65Z"
        transform="translate(-459.16 -38.84)" />
    <path class="cls-1"
        d="M805.92,357.82a5.53,5.53,0,0,1,2.15-2.22,6.39,6.39,0,0,1,3.28-.83,5.64,5.64,0,0,1,3,.76,4.86,4.86,0,0,1,1.89,2,6.47,6.47,0,0,1,.62,2.87,1.3,1.3,0,0,1-.38.9,1.26,1.26,0,0,1-1,.41h-6.23a2.45,2.45,0,0,0,1,1.57,2.93,2.93,0,0,0,1.77.55,4.82,4.82,0,0,0,2.17-.55,1.46,1.46,0,0,1,1-.17,1.24,1.24,0,0,1,.72.65l.32.6a1.12,1.12,0,0,1-.44,1.71,8,8,0,0,1-4.06,1.07,7.2,7.2,0,0,1-2.8-.52,5.57,5.57,0,0,1-2-1.4,6.16,6.16,0,0,1-1.23-2,6.28,6.28,0,0,1-.44-2.31A6.64,6.64,0,0,1,805.92,357.82Zm7,1.64a1.82,1.82,0,0,0-.45-1.26,1.48,1.48,0,0,0-1.18-.51,1.69,1.69,0,0,0-1.27.49,2.51,2.51,0,0,0-.64,1.28Z"
        transform="translate(-459.16 -38.84)" />
    <path class="cls-1"
        d="M459.16,385.55a5.06,5.06,0,0,1,1.5-3.73,5.6,5.6,0,0,1,7.11-.43c.34.23.38.52.11.89l-.19.3a.59.59,0,0,1-.89.15,3.76,3.76,0,0,0-2.23-.75,3.31,3.31,0,0,0-2.48,1,3.81,3.81,0,0,0,0,5.11,3.31,3.31,0,0,0,2.51,1,4.16,4.16,0,0,0,2.54-.92.56.56,0,0,1,.89.19l.16.28a.59.59,0,0,1-.18.88,5.42,5.42,0,0,1-3.54,1.22,5.19,5.19,0,0,1-3.83-1.48A5.08,5.08,0,0,1,459.16,385.55Z"
        transform="translate(-459.16 -38.84)" />
    <path class="cls-1"
        d="M469.5,385.53a5.09,5.09,0,0,1,.72-2.67,5,5,0,0,1,1.94-1.87,5.73,5.73,0,0,1,4.79-.27,5.19,5.19,0,0,1,1.71,1.08,4.76,4.76,0,0,1,1.15,1.65,5.37,5.37,0,0,1-.3,4.77,5.1,5.1,0,0,1-1.95,1.88,5.78,5.78,0,0,1-5.4,0,5,5,0,0,1-1.94-1.88A5.16,5.16,0,0,1,469.5,385.53Zm1.92,0a3.51,3.51,0,0,0,1,2.56,3.39,3.39,0,0,0,4.86,0,3.55,3.55,0,0,0,1-2.57,3.48,3.48,0,0,0-1-2.54,3.28,3.28,0,0,0-2.43-1,3.32,3.32,0,0,0-2.44,1A3.48,3.48,0,0,0,471.42,385.53Z"
        transform="translate(-459.16 -38.84)" />
    <path class="cls-1"
        d="M482.33,389.88v-8.67c0-.43.22-.64.66-.64h.54c.44,0,.66.21.66.64v.88l-.06.58h0a3.27,3.27,0,0,1,.46-.73,4.84,4.84,0,0,1,.75-.76,3.49,3.49,0,0,1,1.13-.62,4.23,4.23,0,0,1,1.44-.24,3.24,3.24,0,0,1,2.57.95,4.22,4.22,0,0,1,.83,2.87v5.74a.57.57,0,0,1-.64.65h-.62a.57.57,0,0,1-.64-.65v-5.29a7,7,0,0,0-.07-1,2.61,2.61,0,0,0-.27-.77,1.29,1.29,0,0,0-.57-.56,2.3,2.3,0,0,0-1-.18,3.06,3.06,0,0,0-2.38,1.05,3.8,3.8,0,0,0-.94,2.63v4.12a.58.58,0,0,1-.66.65H483A.58.58,0,0,1,482.33,389.88Z"
        transform="translate(-459.16 -38.84)" />
    <path class="cls-1"
        d="M494,389.88v-8.67a.57.57,0,0,1,.65-.64h.55c.44,0,.66.21.66.64v.88l-.06.58h0a3.61,3.61,0,0,1,.45-.73,5.92,5.92,0,0,1,.75-.76,3.65,3.65,0,0,1,1.14-.62,4.23,4.23,0,0,1,1.44-.24,3.24,3.24,0,0,1,2.57.95,4.22,4.22,0,0,1,.83,2.87v5.74a.57.57,0,0,1-.64.65h-.62a.57.57,0,0,1-.64-.65v-5.29a7,7,0,0,0-.07-1,2.61,2.61,0,0,0-.27-.77,1.26,1.26,0,0,0-.58-.56,2.22,2.22,0,0,0-1-.18,3.06,3.06,0,0,0-2.38,1.05,3.81,3.81,0,0,0-.95,2.63v4.12a.57.57,0,0,1-.65.65h-.61A.58.58,0,0,1,494,389.88Z"
        transform="translate(-459.16 -38.84)" />
    <path class="cls-1"
        d="M505,385.55a5.18,5.18,0,0,1,1.41-3.79,4.79,4.79,0,0,1,3.58-1.44,4,4,0,0,1,3.16,1.31,5.1,5.1,0,0,1,1.13,3.45.66.66,0,0,1-.19.46.64.64,0,0,1-.48.2h-6.65a3.44,3.44,0,0,0,1.07,2.47,3.37,3.37,0,0,0,2.37.91,3.94,3.94,0,0,0,2.39-.79.59.59,0,0,1,.88.21l.17.3a.63.63,0,0,1,.11.48.54.54,0,0,1-.3.38,5.63,5.63,0,0,1-3.37,1.07,5.48,5.48,0,0,1-2.75-.69,4.8,4.8,0,0,1-1.87-1.87A5.38,5.38,0,0,1,505,385.55Zm2-1.07h5.34a2.78,2.78,0,0,0-.71-2,2.32,2.32,0,0,0-1.71-.69,2.81,2.81,0,0,0-1.92.7A3.22,3.22,0,0,0,507,384.48Z"
        transform="translate(-459.16 -38.84)" />
    <path class="cls-1"
        d="M515.7,385.55a5.06,5.06,0,0,1,1.5-3.73,5.6,5.6,0,0,1,7.11-.43c.34.23.38.52.11.89l-.19.3a.59.59,0,0,1-.89.15,3.73,3.73,0,0,0-2.22-.75,3.32,3.32,0,0,0-2.49,1,3.81,3.81,0,0,0,0,5.11,3.31,3.31,0,0,0,2.51,1,4.14,4.14,0,0,0,2.54-.92.56.56,0,0,1,.89.19l.16.28a.59.59,0,0,1-.18.88,5.42,5.42,0,0,1-3.54,1.22,5.19,5.19,0,0,1-3.83-1.48A5.08,5.08,0,0,1,515.7,385.55Z"
        transform="translate(-459.16 -38.84)" />
    <path class="cls-1"
        d="M527.28,386.94v-4.72h-.69a.57.57,0,0,1-.64-.65v-.25a.58.58,0,0,1,.66-.66h.71v-2.18c0-.44.21-.66.64-.66h.58a.58.58,0,0,1,.65.66v2.18h1.73a.58.58,0,0,1,.65.66v.25a.57.57,0,0,1-.63.65h-1.75v4.43a3.14,3.14,0,0,0,.13,1,1.74,1.74,0,0,0,.32.64,1.67,1.67,0,0,0,.46.37,1.92,1.92,0,0,0,.5.2,3.43,3.43,0,0,0,.48.08.77.77,0,0,1,.53.17.66.66,0,0,1,.15.48V390c0,.43-.26.65-.77.65a3.89,3.89,0,0,1-2.65-.94A3.44,3.44,0,0,1,527.28,386.94Z"
        transform="translate(-459.16 -38.84)" />
    <path class="cls-1"
        d="M534.17,378.57a.58.58,0,0,1-.66-.65v-.64a.58.58,0,0,1,.66-.66h.67a.58.58,0,0,1,.65.66v.64a.65.65,0,0,1-.17.48.61.61,0,0,1-.48.17Zm-.64,11.31v-8.67c0-.43.22-.64.66-.64h.6c.44,0,.66.21.66.64v8.67a.58.58,0,0,1-.66.65h-.6A.58.58,0,0,1,533.53,389.88Z"
        transform="translate(-459.16 -38.84)" />
    <path class="cls-1"
        d="M538.2,389.88v-8.67a.57.57,0,0,1,.65-.64h.55c.44,0,.66.21.66.64v.88l-.06.58h0a3.61,3.61,0,0,1,.45-.73,5.92,5.92,0,0,1,.75-.76,3.59,3.59,0,0,1,1.13-.62,4.28,4.28,0,0,1,1.45-.24,3.24,3.24,0,0,1,2.57.95,4.27,4.27,0,0,1,.83,2.87v5.74a.57.57,0,0,1-.64.65H546a.57.57,0,0,1-.64-.65v-5.29a7,7,0,0,0-.07-1,2.61,2.61,0,0,0-.27-.77,1.26,1.26,0,0,0-.58-.56,2.22,2.22,0,0,0-1-.18,3,3,0,0,0-2.38,1.05,3.81,3.81,0,0,0-.95,2.63v4.12a.57.57,0,0,1-.65.65h-.61A.58.58,0,0,1,538.2,389.88Z"
        transform="translate(-459.16 -38.84)" />
    <path class="cls-1"
        d="M550.55,392.92a.57.57,0,0,1,.83-.34,6.31,6.31,0,0,0,2.16.43,4.61,4.61,0,0,0,1.21-.15,2.85,2.85,0,0,0,1-.48,2.16,2.16,0,0,0,.69-.87,3.24,3.24,0,0,0,.25-1.3v-.86l.06-.63h0a3.12,3.12,0,0,1-3,1.7,4.22,4.22,0,0,1-4-2.51,6.14,6.14,0,0,1-.54-2.62,5.31,5.31,0,0,1,1.18-3.58,4.1,4.1,0,0,1,3.28-1.39,4.17,4.17,0,0,1,1.26.18,2.7,2.7,0,0,1,.9.42,3.35,3.35,0,0,1,.55.49,1.94,1.94,0,0,1,.32.42l.07.17h0a1.32,1.32,0,0,1,0-.32v-.57q0-.54.66-.54h.47a.57.57,0,0,1,.65.64v8.91a5,5,0,0,1-.28,1.73,3.71,3.71,0,0,1-.76,1.29,4.16,4.16,0,0,1-1.11.87,5.11,5.11,0,0,1-1.35.5,6.17,6.17,0,0,1-1.44.16,7.28,7.28,0,0,1-2.9-.55.58.58,0,0,1-.33-.87Zm3.53-4.16a2.73,2.73,0,0,0,1-.18,2.35,2.35,0,0,0,.83-.56,2.51,2.51,0,0,0,.6-1.06,5.47,5.47,0,0,0,.21-1.61q0-3.37-2.76-3.37a2.52,2.52,0,0,0-2,.86,3.61,3.61,0,0,0-.72,2.37,4,4,0,0,0,.77,2.58A2.55,2.55,0,0,0,554.08,388.76Z"
        transform="translate(-459.16 -38.84)" />
    <path class="cls-1"
        d="M566.31,389.88v-12.6a.58.58,0,0,1,.65-.66h.61q.63,0,.63.66v4.51c0,.14,0,.28,0,.42s0,.23,0,.3l0,.1h0a3.61,3.61,0,0,1,.49-.76,5.07,5.07,0,0,1,.78-.74,3.93,3.93,0,0,1,1.1-.57,4.35,4.35,0,0,1,1.36-.22,3.28,3.28,0,0,1,2.58.95,4.22,4.22,0,0,1,.84,2.87v5.74a.58.58,0,0,1-.65.65h-.61a.58.58,0,0,1-.65-.65v-5.29a5.79,5.79,0,0,0-.07-1,2.61,2.61,0,0,0-.27-.77,1.26,1.26,0,0,0-.58-.56,2.3,2.3,0,0,0-1-.18,3.06,3.06,0,0,0-2.38,1.05,3.88,3.88,0,0,0-.95,2.67v4.08a.57.57,0,0,1-.63.65H567A.57.57,0,0,1,566.31,389.88Z"
        transform="translate(-459.16 -38.84)" />
    <path class="cls-1"
        d="M577.32,385.55a5.18,5.18,0,0,1,1.41-3.79,4.79,4.79,0,0,1,3.57-1.44,4,4,0,0,1,3.16,1.31,5.05,5.05,0,0,1,1.13,3.45.65.65,0,0,1-.18.46.66.66,0,0,1-.48.2h-6.66a3.48,3.48,0,0,0,1.07,2.47,3.37,3.37,0,0,0,2.38.91,3.91,3.91,0,0,0,2.38-.79.6.6,0,0,1,.89.21l.17.3a.67.67,0,0,1,.11.48.59.59,0,0,1-.3.38,5.66,5.66,0,0,1-3.37,1.07,5.48,5.48,0,0,1-2.75-.69,4.74,4.74,0,0,1-1.87-1.87A5.38,5.38,0,0,1,577.32,385.55Zm2-1.07h5.34a2.83,2.83,0,0,0-.72-2,2.29,2.29,0,0,0-1.71-.69,2.78,2.78,0,0,0-1.91.7A3.17,3.17,0,0,0,579.35,384.48Z"
        transform="translate(-459.16 -38.84)" />
    <path class="cls-1"
        d="M587.87,387.81a2.94,2.94,0,0,1,.23-1.17,2.82,2.82,0,0,1,.58-.87,3.76,3.76,0,0,1,.89-.61,6.71,6.71,0,0,1,1-.4,8.29,8.29,0,0,1,1.13-.24,10.19,10.19,0,0,1,1.1-.11q.48,0,1,0h.51v-.26a1.93,1.93,0,0,0-2.17-2.18,4.43,4.43,0,0,0-2.25.64.62.62,0,0,1-.88-.24l-.16-.28c-.2-.41-.13-.7.21-.89a6.45,6.45,0,0,1,3.24-.85,3.92,3.92,0,0,1,2.89,1,3.84,3.84,0,0,1,1,2.89v5.65a.58.58,0,0,1-.65.65h-.49a.58.58,0,0,1-.66-.65v-.59c0-.11,0-.21,0-.32s0-.18,0-.23l0-.07h0a1.52,1.52,0,0,1-.11.23c-.06.09-.17.26-.36.5a4.18,4.18,0,0,1-.62.64,3.42,3.42,0,0,1-.92.5,3.13,3.13,0,0,1-1.23.23,3.62,3.62,0,0,1-2.37-.81A2.63,2.63,0,0,1,587.87,387.81Zm1.94-.16a1.52,1.52,0,0,0,.49,1.13,1.92,1.92,0,0,0,1.36.47,2.25,2.25,0,0,0,1.43-.49,2.93,2.93,0,0,0,.95-1.21,3.61,3.61,0,0,0,.32-1.47v-.44h-.51C591.15,385.64,589.81,386.31,589.81,387.65Z"
        transform="translate(-459.16 -38.84)" />
    <path class="cls-1"
        d="M598.86,387.81V377.28a.58.58,0,0,1,.65-.66h.61a.58.58,0,0,1,.65.66v10.3a1.47,1.47,0,0,0,.25,1,1,1,0,0,0,.66.31.51.51,0,0,1,.51.56v.48a.59.59,0,0,1-.67.67,4.86,4.86,0,0,1-.69-.05,2.79,2.79,0,0,1-.7-.22,2.06,2.06,0,0,1-.65-.46,2.51,2.51,0,0,1-.44-.82A3.88,3.88,0,0,1,598.86,387.81Z"
        transform="translate(-459.16 -38.84)" />
    <path class="cls-1"
        d="M604.42,386.94v-4.72h-.7a.57.57,0,0,1-.63-.65v-.25a.58.58,0,0,1,.65-.66h.72v-2.18c0-.44.21-.66.64-.66h.58c.43,0,.64.22.64.66v2.18h1.73a.58.58,0,0,1,.66.66v.25a.57.57,0,0,1-.64.65h-1.75v4.43a3.14,3.14,0,0,0,.13,1,2.11,2.11,0,0,0,.32.64,1.71,1.71,0,0,0,.47.37,1.8,1.8,0,0,0,.5.2,3,3,0,0,0,.48.08.79.79,0,0,1,.53.17.66.66,0,0,1,.15.48V390c0,.43-.26.65-.78.65a3.84,3.84,0,0,1-2.64-.94A3.44,3.44,0,0,1,604.42,386.94Z"
        transform="translate(-459.16 -38.84)" />
    <path class="cls-1"
        d="M610.69,389.88v-12.6a.58.58,0,0,1,.65-.66H612q.63,0,.63.66v4.51c0,.14,0,.28,0,.42s0,.23,0,.3l0,.1h0a3.31,3.31,0,0,1,.5-.76,5,5,0,0,1,.77-.74,3.93,3.93,0,0,1,1.1-.57,4.35,4.35,0,0,1,1.36-.22,3.27,3.27,0,0,1,2.58.95,4.22,4.22,0,0,1,.84,2.87v5.74a.57.57,0,0,1-.64.65h-.62a.57.57,0,0,1-.64-.65v-5.29a5.7,5.7,0,0,0-.08-1,2.61,2.61,0,0,0-.27-.77,1.26,1.26,0,0,0-.58-.56,2.3,2.3,0,0,0-1-.18,3.08,3.08,0,0,0-2.38,1.05,3.88,3.88,0,0,0-.95,2.67v4.08a.57.57,0,0,1-.63.65h-.61A.58.58,0,0,1,610.69,389.88Z"
        transform="translate(-459.16 -38.84)" />
    <path class="cls-1"
        d="M626.61,385.55a5.06,5.06,0,0,1,1.5-3.73,5.6,5.6,0,0,1,7.11-.43c.34.23.38.52.11.89l-.19.3a.59.59,0,0,1-.89.15A3.76,3.76,0,0,0,632,382a3.31,3.31,0,0,0-2.48,1,3.81,3.81,0,0,0,0,5.11,3.3,3.3,0,0,0,2.51,1,4.16,4.16,0,0,0,2.54-.92.56.56,0,0,1,.89.19l.16.28a.59.59,0,0,1-.18.88,5.42,5.42,0,0,1-3.54,1.22,5.19,5.19,0,0,1-3.83-1.48A5.08,5.08,0,0,1,626.61,385.55Z"
        transform="translate(-459.16 -38.84)" />
    <path class="cls-1"
        d="M636.9,387.81a2.94,2.94,0,0,1,.23-1.17,2.82,2.82,0,0,1,.58-.87,3.76,3.76,0,0,1,.89-.61,6.35,6.35,0,0,1,1-.4,8.29,8.29,0,0,1,1.13-.24,10.19,10.19,0,0,1,1.1-.11c.32,0,.64,0,1,0h.51v-.26a1.93,1.93,0,0,0-2.17-2.18,4.43,4.43,0,0,0-2.25.64.62.62,0,0,1-.88-.24l-.16-.28c-.2-.41-.13-.7.21-.89a6.41,6.41,0,0,1,3.23-.85,3.94,3.94,0,0,1,2.9,1,3.84,3.84,0,0,1,1,2.89v5.65a.58.58,0,0,1-.65.65h-.5a.58.58,0,0,1-.65-.65v-.59c0-.11,0-.21,0-.32s0-.18,0-.23l0-.07h0a1.74,1.74,0,0,1-.12.23,5.71,5.71,0,0,1-.35.5,4.18,4.18,0,0,1-.62.64,3.42,3.42,0,0,1-.92.5,3.2,3.2,0,0,1-1.23.23,3.61,3.61,0,0,1-2.37-.81A2.63,2.63,0,0,1,636.9,387.81Zm1.94-.16a1.52,1.52,0,0,0,.49,1.13,1.9,1.9,0,0,0,1.36.47,2.25,2.25,0,0,0,1.43-.49,3,3,0,0,0,1-1.21,3.59,3.59,0,0,0,.31-1.47v-.44h-.51Q638.83,385.64,638.84,387.65Z"
        transform="translate(-459.16 -38.84)" />
    <path class="cls-1"
        d="M647.89,389.88v-8.67a.57.57,0,0,1,.65-.64h.55a.57.57,0,0,1,.65.64v1.14l-.06.75h0a4.39,4.39,0,0,1,1.18-1.84,2.66,2.66,0,0,1,1.87-.77.56.56,0,0,1,.64.64v.55c0,.44-.24.66-.71.66a2.29,2.29,0,0,0-1.27.35,2.7,2.7,0,0,0-.92.95,5,5,0,0,0-.53,1.3,6,6,0,0,0-.18,1.47v3.47a.58.58,0,0,1-.65.65h-.61A.57.57,0,0,1,647.89,389.88Z"
        transform="translate(-459.16 -38.84)" />
    <path class="cls-1"
        d="M654,385.55a5.18,5.18,0,0,1,1.41-3.79,4.77,4.77,0,0,1,3.57-1.44,4,4,0,0,1,3.16,1.31,5.1,5.1,0,0,1,1.13,3.45.67.67,0,0,1-.66.66h-6.66a3.44,3.44,0,0,0,1.07,2.47,3.37,3.37,0,0,0,2.37.91,3.94,3.94,0,0,0,2.39-.79.59.59,0,0,1,.88.21l.18.3a.66.66,0,0,1,.1.48.54.54,0,0,1-.3.38,5.63,5.63,0,0,1-3.36,1.07,5.43,5.43,0,0,1-2.75-.69,4.76,4.76,0,0,1-1.88-1.87A5.38,5.38,0,0,1,654,385.55Zm2-1.07h5.33a2.78,2.78,0,0,0-.71-2,2.29,2.29,0,0,0-1.71-.69,2.78,2.78,0,0,0-1.91.7A3.12,3.12,0,0,0,656,384.48Z"
        transform="translate(-459.16 -38.84)" />
    <path class="cls-1"
        d="M669.43,387.81a2.94,2.94,0,0,1,.23-1.17,2.84,2.84,0,0,1,.59-.87,3.7,3.7,0,0,1,.88-.61,6.71,6.71,0,0,1,1-.4,8.29,8.29,0,0,1,1.13-.24,10.19,10.19,0,0,1,1.1-.11q.48,0,1,0h.51v-.26a1.93,1.93,0,0,0-2.17-2.18,4.43,4.43,0,0,0-2.25.64.62.62,0,0,1-.88-.24l-.16-.28c-.2-.41-.13-.7.21-.89a6.45,6.45,0,0,1,3.24-.85,3.92,3.92,0,0,1,2.89,1,3.84,3.84,0,0,1,1,2.89v5.65a.58.58,0,0,1-.65.65h-.49a.58.58,0,0,1-.66-.65v-.59c0-.11,0-.21,0-.32s0-.18,0-.23l0-.07H676a1.52,1.52,0,0,1-.11.23c-.06.09-.17.26-.36.5a4.18,4.18,0,0,1-.62.64,3.27,3.27,0,0,1-.92.5,3.13,3.13,0,0,1-1.23.23,3.62,3.62,0,0,1-2.37-.81A2.63,2.63,0,0,1,669.43,387.81Zm1.94-.16a1.52,1.52,0,0,0,.49,1.13,1.92,1.92,0,0,0,1.36.47,2.28,2.28,0,0,0,1.44-.49,3,3,0,0,0,.94-1.21,3.61,3.61,0,0,0,.32-1.47v-.44h-.51C672.71,385.64,671.37,386.31,671.37,387.65Z"
        transform="translate(-459.16 -38.84)" />
    <path class="cls-1"
        d="M680.42,389.88v-8.67a.57.57,0,0,1,.65-.64h.55a.57.57,0,0,1,.65.64v.88l0,.58h0a3.21,3.21,0,0,1,.45-.73,5.92,5.92,0,0,1,.75-.76,3.59,3.59,0,0,1,1.13-.62,4.28,4.28,0,0,1,1.45-.24,3.26,3.26,0,0,1,2.57.95,4.27,4.27,0,0,1,.83,2.87v5.74a.57.57,0,0,1-.64.65h-.62a.57.57,0,0,1-.64-.65v-5.29a5.7,5.7,0,0,0-.08-1,2.34,2.34,0,0,0-.26-.77,1.26,1.26,0,0,0-.58-.56,2.22,2.22,0,0,0-1-.18,3.08,3.08,0,0,0-2.39,1.05,3.85,3.85,0,0,0-.94,2.63v4.12a.58.58,0,0,1-.65.65h-.61A.58.58,0,0,1,680.42,389.88Z"
        transform="translate(-459.16 -38.84)" />
    <path class="cls-1"
        d="M691.45,385.55a5.52,5.52,0,0,1,1.26-3.79,4.13,4.13,0,0,1,3.25-1.44,3.87,3.87,0,0,1,1.2.18,3.08,3.08,0,0,1,.89.43,4.84,4.84,0,0,1,.57.5,2.24,2.24,0,0,1,.33.42l.1.19h0a3.4,3.4,0,0,1-.06-.67v-4.09a.58.58,0,0,1,.65-.66h.61a.58.58,0,0,1,.66.66v12.6a.58.58,0,0,1-.66.65h-.51c-.43,0-.64-.2-.64-.61v-.57l0-.49h0c0,.05-.06.12-.11.2a2.92,2.92,0,0,1-.35.47,3.41,3.41,0,0,1-.62.58,3.5,3.5,0,0,1-.93.45,3.86,3.86,0,0,1-1.28.21,4,4,0,0,1-3.21-1.44A5.76,5.76,0,0,1,691.45,385.55Zm1.95,0a4,4,0,0,0,.78,2.59,2.49,2.49,0,0,0,2,1,2.69,2.69,0,0,0,2-.84,2.63,2.63,0,0,0,.65-1.13,5,5,0,0,0,.24-1.62,4.59,4.59,0,0,0-.18-1.3,4.15,4.15,0,0,0-.51-1.13,2.45,2.45,0,0,0-.89-.8,2.7,2.7,0,0,0-3.29.65A3.89,3.89,0,0,0,693.4,385.55Z"
        transform="translate(-459.16 -38.84)" />
    <path class="cls-1"
        d="M708,385.55a5.48,5.48,0,0,1,1.27-3.79,4.1,4.1,0,0,1,3.25-1.44,3.76,3.76,0,0,1,1.19.18,3,3,0,0,1,.89.43,4.84,4.84,0,0,1,.57.5,3,3,0,0,1,.34.42l.09.19h0a3.4,3.4,0,0,1-.06-.67v-4.09a.58.58,0,0,1,.66-.66h.6a.58.58,0,0,1,.66.66v12.6a.58.58,0,0,1-.66.65h-.51c-.43,0-.64-.2-.64-.61v-.57l0-.49h0c0,.05-.06.12-.11.2a3.35,3.35,0,0,1-.34.47,3.78,3.78,0,0,1-.62.58,3.59,3.59,0,0,1-.94.45,3.82,3.82,0,0,1-1.28.21,3.93,3.93,0,0,1-3.2-1.44A5.71,5.71,0,0,1,708,385.55Zm2,0a4,4,0,0,0,.78,2.59,2.47,2.47,0,0,0,2,1,2.72,2.72,0,0,0,1.07-.21,2.8,2.8,0,0,0,.92-.63,2.85,2.85,0,0,0,.65-1.13,5.32,5.32,0,0,0,.23-1.62,4.59,4.59,0,0,0-.18-1.3,3.87,3.87,0,0,0-.51-1.13,2.37,2.37,0,0,0-.89-.8,2.68,2.68,0,0,0-3.28.65A3.84,3.84,0,0,0,710,385.55Z"
        transform="translate(-459.16 -38.84)" />
    <path class="cls-1"
        d="M719.49,387.81a2.94,2.94,0,0,1,.23-1.17,2.82,2.82,0,0,1,.58-.87,3.76,3.76,0,0,1,.89-.61,6.35,6.35,0,0,1,1-.4,8.29,8.29,0,0,1,1.13-.24,10.19,10.19,0,0,1,1.1-.11c.32,0,.64,0,1,0H726v-.26a1.93,1.93,0,0,0-2.17-2.18,4.43,4.43,0,0,0-2.25.64.62.62,0,0,1-.88-.24l-.16-.28c-.2-.41-.13-.7.21-.89a6.41,6.41,0,0,1,3.23-.85,3.94,3.94,0,0,1,2.9,1,3.84,3.84,0,0,1,1,2.89v5.65a.58.58,0,0,1-.65.65h-.5a.58.58,0,0,1-.65-.65v-.59c0-.11,0-.21,0-.32a1.07,1.07,0,0,1,0-.23l0-.07h0a1.74,1.74,0,0,1-.12.23,5.71,5.71,0,0,1-.35.5,4.18,4.18,0,0,1-.62.64,3.42,3.42,0,0,1-.92.5,3.2,3.2,0,0,1-1.23.23,3.59,3.59,0,0,1-2.37-.81A2.63,2.63,0,0,1,719.49,387.81Zm1.93-.16a1.53,1.53,0,0,0,.5,1.13,1.9,1.9,0,0,0,1.36.47,2.25,2.25,0,0,0,1.43-.49,3,3,0,0,0,.95-1.21,3.59,3.59,0,0,0,.31-1.47v-.44h-.51Q721.43,385.64,721.42,387.65Z"
        transform="translate(-459.16 -38.84)" />
    <path class="cls-1"
        d="M730.84,386.94v-4.72h-.69a.57.57,0,0,1-.64-.65v-.25a.58.58,0,0,1,.66-.66h.71v-2.18c0-.44.21-.66.64-.66h.58a.58.58,0,0,1,.65.66v2.18h1.73a.58.58,0,0,1,.65.66v.25a.57.57,0,0,1-.63.65h-1.75v4.43a3.14,3.14,0,0,0,.13,1,1.74,1.74,0,0,0,.32.64,1.57,1.57,0,0,0,.47.37,1.75,1.75,0,0,0,.49.2,3.43,3.43,0,0,0,.48.08.75.75,0,0,1,.53.17.66.66,0,0,1,.15.48V390c0,.43-.26.65-.77.65a3.87,3.87,0,0,1-2.65-.94A3.44,3.44,0,0,1,730.84,386.94Z"
        transform="translate(-459.16 -38.84)" />
    <path class="cls-1"
        d="M736.29,387.81a2.94,2.94,0,0,1,.22-1.17,2.84,2.84,0,0,1,.59-.87,3.7,3.7,0,0,1,.88-.61,6.71,6.71,0,0,1,1-.4,8.44,8.44,0,0,1,1.14-.24,10,10,0,0,1,1.09-.11q.48,0,1,0h.51v-.26a1.92,1.92,0,0,0-2.16-2.18,4.37,4.37,0,0,0-2.25.64.64.64,0,0,1-.89-.24l-.15-.28c-.21-.41-.14-.7.21-.89a6.41,6.41,0,0,1,3.23-.85,3.92,3.92,0,0,1,2.89,1,3.84,3.84,0,0,1,1,2.89v5.65a.57.57,0,0,1-.65.65h-.49a.57.57,0,0,1-.65-.65v-.59c0-.11,0-.21,0-.32s0-.18,0-.23l0-.07h0a1.52,1.52,0,0,1-.11.23,4.58,4.58,0,0,1-.36.5,3.76,3.76,0,0,1-.62.64,3.69,3.69,0,0,1-2.15.73,3.62,3.62,0,0,1-2.37-.81A2.62,2.62,0,0,1,736.29,387.81Zm1.93-.16a1.5,1.5,0,0,0,.5,1.13,1.9,1.9,0,0,0,1.36.47,2.25,2.25,0,0,0,1.43-.49,3.11,3.11,0,0,0,1-1.21,3.59,3.59,0,0,0,.31-1.47v-.44h-.51Q738.23,385.64,738.22,387.65Z"
        transform="translate(-459.16 -38.84)" />
    <path class="cls-1"
        d="M751.8,389.68c-.33-.21-.38-.51-.13-.88l.2-.28a.63.63,0,0,1,.4-.28.77.77,0,0,1,.5.15,4.48,4.48,0,0,0,2.45.8,1.94,1.94,0,0,0,1.22-.35,1.13,1.13,0,0,0,.47-1,1,1,0,0,0-.28-.7,2.4,2.4,0,0,0-.74-.5c-.3-.14-.63-.27-1-.4s-.73-.28-1.1-.44a5.79,5.79,0,0,1-1-.58,2.34,2.34,0,0,1-.73-.85,2.68,2.68,0,0,1,.75-3.33,4.25,4.25,0,0,1,2.57-.76,5.07,5.07,0,0,1,2.76.77.54.54,0,0,1,.31.37.66.66,0,0,1-.1.5l-.17.3q-.25.5-.87.21a3.92,3.92,0,0,0-2-.57,2.1,2.1,0,0,0-1.2.32,1.08,1.08,0,0,0-.47.94,1,1,0,0,0,.28.71,2.24,2.24,0,0,0,.74.5,9.49,9.49,0,0,0,1,.39c.37.13.73.28,1.1.44a6.86,6.86,0,0,1,1,.57,2.34,2.34,0,0,1,.73.85,2.49,2.49,0,0,1,.29,1.21,2.65,2.65,0,0,1-1,2.11,3.93,3.93,0,0,1-2.59.83A5.39,5.39,0,0,1,751.8,389.68Z"
        transform="translate(-459.16 -38.84)" />
    <path class="cls-1"
        d="M760.2,385.55a5.06,5.06,0,0,1,1.5-3.73,5.6,5.6,0,0,1,7.11-.43c.34.23.38.52.11.89l-.19.3a.59.59,0,0,1-.89.15,3.76,3.76,0,0,0-2.23-.75,3.31,3.31,0,0,0-2.48,1,3.81,3.81,0,0,0,0,5.11,3.31,3.31,0,0,0,2.51,1,4.16,4.16,0,0,0,2.54-.92.56.56,0,0,1,.89.19l.16.28a.59.59,0,0,1-.18.88,5.42,5.42,0,0,1-3.54,1.22,5.19,5.19,0,0,1-3.83-1.48A5.08,5.08,0,0,1,760.2,385.55Z"
        transform="translate(-459.16 -38.84)" />
    <path class="cls-1"
        d="M771.93,378.57a.57.57,0,0,1-.65-.65v-.64a.58.58,0,0,1,.65-.66h.68c.43,0,.64.22.64.66v.64a.61.61,0,0,1-.17.48.61.61,0,0,1-.47.17Zm-.63,11.31v-8.67a.57.57,0,0,1,.65-.64h.61a.57.57,0,0,1,.65.64v8.67a.57.57,0,0,1-.65.65H772A.58.58,0,0,1,771.3,389.88Z"
        transform="translate(-459.16 -38.84)" />
    <path class="cls-1"
        d="M775.34,385.55a5.18,5.18,0,0,1,1.41-3.79,4.79,4.79,0,0,1,3.57-1.44,4,4,0,0,1,3.16,1.31,5.05,5.05,0,0,1,1.13,3.45.67.67,0,0,1-.66.66h-6.66a3.48,3.48,0,0,0,1.07,2.47,3.37,3.37,0,0,0,2.38.91,3.91,3.91,0,0,0,2.38-.79.6.6,0,0,1,.89.21l.17.3a.67.67,0,0,1,.11.48.59.59,0,0,1-.3.38,5.66,5.66,0,0,1-3.37,1.07,5.45,5.45,0,0,1-2.75-.69,4.74,4.74,0,0,1-1.87-1.87A5.38,5.38,0,0,1,775.34,385.55Zm2-1.07h5.34a2.83,2.83,0,0,0-.72-2,2.29,2.29,0,0,0-1.71-.69,2.78,2.78,0,0,0-1.91.7A3.17,3.17,0,0,0,777.37,384.48Z"
        transform="translate(-459.16 -38.84)" />
    <path class="cls-1"
        d="M786.7,389.88v-8.67a.57.57,0,0,1,.65-.64h.55c.44,0,.66.21.66.64v.88l-.06.58h0a3.61,3.61,0,0,1,.45-.73,5.92,5.92,0,0,1,.75-.76,3.59,3.59,0,0,1,1.13-.62,4.28,4.28,0,0,1,1.45-.24,3.24,3.24,0,0,1,2.57.95,4.27,4.27,0,0,1,.83,2.87v5.74a.57.57,0,0,1-.64.65h-.62a.57.57,0,0,1-.64-.65v-5.29a7,7,0,0,0-.07-1,2.61,2.61,0,0,0-.27-.77,1.26,1.26,0,0,0-.58-.56,2.22,2.22,0,0,0-1-.18,3,3,0,0,0-2.38,1.05,3.81,3.81,0,0,0-.95,2.63v4.12a.57.57,0,0,1-.65.65h-.61A.58.58,0,0,1,786.7,389.88Z"
        transform="translate(-459.16 -38.84)" />
    <path class="cls-1"
        d="M797.69,385.55a5.06,5.06,0,0,1,1.5-3.73,5.6,5.6,0,0,1,7.11-.43c.34.23.38.52.12.89l-.19.3a.6.6,0,0,1-.9.15,3.71,3.71,0,0,0-2.22-.75,3.32,3.32,0,0,0-2.49,1,3.51,3.51,0,0,0-1,2.55,3.57,3.57,0,0,0,1,2.56,3.33,3.33,0,0,0,2.52,1,4.18,4.18,0,0,0,2.54-.92.55.55,0,0,1,.88.19l.17.28a.6.6,0,0,1-.19.88,5.38,5.38,0,0,1-3.54,1.22,5.18,5.18,0,0,1-3.82-1.48A5,5,0,0,1,797.69,385.55Z"
        transform="translate(-459.16 -38.84)" />
    <path class="cls-1"
        d="M808.07,385.55a5.18,5.18,0,0,1,1.41-3.79,4.79,4.79,0,0,1,3.58-1.44,4,4,0,0,1,3.16,1.31,5.1,5.1,0,0,1,1.13,3.45.66.66,0,0,1-.19.46.64.64,0,0,1-.48.2H810a3.4,3.4,0,0,0,1.07,2.47,3.37,3.37,0,0,0,2.37.91,4,4,0,0,0,2.39-.79.59.59,0,0,1,.88.21l.17.3a.63.63,0,0,1,.11.48.54.54,0,0,1-.3.38,5.66,5.66,0,0,1-3.37,1.07,5.48,5.48,0,0,1-2.75-.69,4.8,4.8,0,0,1-1.87-1.87A5.38,5.38,0,0,1,808.07,385.55Zm2-1.07h5.34a2.78,2.78,0,0,0-.71-2,2.32,2.32,0,0,0-1.71-.69,2.81,2.81,0,0,0-1.92.7A3.22,3.22,0,0,0,810.1,384.48Z"
        transform="translate(-459.16 -38.84)" />
    <text class="cls-2" transform="translate(199.03 81.88) scale(0.99 1)">
        <tspan class="cls-3">00101</tspan>
        <tspan class="cls-4" x="25.6" y="0">01</tspan>
        <tspan x="34.82" y="0">0</tspan>
    </text>
    <text class="cls-2" transform="translate(184.78 93.66) scale(0.99 1)">
        <tspan class="cls-5">11011</tspan>
        <tspan class="cls-4" x="25.6" y="0">01</tspan>
        <tspan class="cls-3" x="34.82" y="0">1</tspan>
        <tspan class="cls-6" x="39.94" y="0">01</tspan>
        <tspan class="cls-3" x="49.17" y="0">0</tspan>
        <tspan class="cls-4" x="54.29" y="0">01</tspan>
        <tspan x="63.51" y="0">0</tspan>
    </text>
    <text class="cls-7" transform="translate(175.62 104.95) scale(0.99 1)">10101<tspan class="cls-4"
            x="25.6" y="0">10</tspan><tspan class="cls-3" x="34.82" y="0">1</tspan><tspan
            class="cls-4" x="39.94" y="0">01</tspan><tspan class="cls-3" x="49.17" y="0">0</tspan><tspan
            class="cls-6" x="54.29" y="0">11</tspan><tspan class="cls-3" x="63.51" y="0">0</tspan><tspan
            class="cls-4" x="68.63" y="0">10</tspan><tspan class="cls-3" x="77.86" y="0">1</tspan><tspan
            class="cls-8" x="82.98" y="0">0</tspan></text>
    <text class="cls-2" transform="translate(170.51 116.73) scale(0.99 1)">
        <tspan class="cls-5">10101</tspan>
        <tspan class="cls-4" x="25.6" y="0">10</tspan>
        <tspan class="cls-3" x="34.82" y="0">1</tspan>
        <tspan class="cls-6" x="39.94" y="0">01</tspan>
        <tspan class="cls-3" x="49.17" y="0">0</tspan>
        <tspan class="cls-4" x="54.29" y="0">11</tspan>
        <tspan class="cls-3" x="63.51" y="0">0</tspan>
        <tspan class="cls-6" x="68.63" y="0">10</tspan>
        <tspan class="cls-3" x="77.86" y="0">1</tspan>
        <tspan class="cls-4" x="82.98" y="0">01</tspan>
        <tspan x="92.2" y="0">0</tspan>
    </text>
    <text class="cls-2" transform="translate(170.51 128.01) scale(0.99 1)">
        <tspan class="cls-5">10101</tspan>
        <tspan class="cls-4" x="25.6" y="0">01</tspan>
        <tspan class="cls-3" x="34.82" y="0">1</tspan>
        <tspan class="cls-6" x="39.94" y="0">01</tspan>
        <tspan class="cls-3" x="49.17" y="0">0</tspan>
        <tspan class="cls-4" x="54.29" y="0">10</tspan>
        <tspan class="cls-3" x="63.51" y="0">1</tspan>
        <tspan class="cls-6" x="68.63" y="0">01</tspan>
        <tspan class="cls-3" x="77.86" y="0">0</tspan>
        <tspan class="cls-4" x="82.98" y="0">01</tspan>
        <tspan x="92.2" y="0">1</tspan>
    </text>
    <text class="cls-7" transform="translate(175.62 139.27) scale(0.99 1)">01101<tspan class="cls-4"
            x="25.6" y="0">01</tspan><tspan class="cls-3" x="34.82" y="0">0</tspan><tspan
            class="cls-4" x="39.94" y="0">01</tspan><tspan class="cls-3" x="49.17" y="0">1</tspan><tspan
            class="cls-6" x="54.29" y="0">01</tspan><tspan class="cls-3" x="63.51" y="0">0</tspan><tspan
            class="cls-4" x="68.63" y="0">10</tspan><tspan class="cls-3" x="77.86" y="0">1</tspan><tspan
            class="cls-8" x="82.98" y="0">0</tspan></text>
    <text class="cls-2" transform="translate(180.19 151.06) scale(0.99 1)">
        <tspan class="cls-5">10100</tspan>
        <tspan class="cls-4" x="25.6" y="0">10</tspan>
        <tspan class="cls-3" x="34.82" y="0">1</tspan>
        <tspan class="cls-6" x="39.94" y="0">01</tspan>
        <tspan class="cls-3" x="49.17" y="0">1</tspan>
        <tspan class="cls-4" x="54.29" y="0">00</tspan>
        <tspan class="cls-3" x="63.51" y="0">1</tspan>
        <tspan class="cls-6" x="68.63" y="0">0</tspan>
        <tspan x="73.24" y="0">1</tspan>
    </text>
    <text class="cls-2" transform="translate(197 162.34) scale(0.99 1)">
        <tspan class="cls-3">11010</tspan>
        <tspan class="cls-4" x="25.6" y="0">10</tspan>
        <tspan class="cls-3" x="34.82" y="0">0</tspan>
        <tspan x="39.94" y="0">0</tspan>
    </text>
    <text class="cls-2" transform="translate(168.48 185.39) scale(0.99 1)">
        <tspan class="cls-5">01110</tspan>
        <tspan class="cls-9" x="25.6" y="0">11</tspan>
        <tspan class="cls-3" x="34.82" y="0">0</tspan>
        <tspan class="cls-6" x="39.94" y="0">10</tspan>
        <tspan class="cls-3" x="49.17" y="0">1</tspan>
        <tspan class="cls-4" x="54.29" y="0">11</tspan>
        <tspan class="cls-3" x="63.51" y="0">0</tspan>
        <tspan class="cls-6" x="68.63" y="0">10</tspan>
        <tspan class="cls-3" x="77.86" y="0">1</tspan>
        <tspan class="cls-4" x="82.98" y="0">01</tspan>
        <tspan class="cls-10" x="92.2" y="0">0</tspan>
        <tspan x="97.32" y="0">0</tspan>
    </text>
    <text class="cls-2" transform="translate(149.14 196.66) scale(0.99 1)">
        <tspan class="cls-5">00101</tspan>
        <tspan class="cls-4" x="25.6" y="0">01</tspan>
        <tspan class="cls-5" x="34.82" y="0">1</tspan>
        <tspan class="cls-4" x="39.94" y="0">01</tspan>
        <tspan class="cls-3" x="49.17" y="0">0</tspan>
        <tspan class="cls-6" x="54.29" y="0">10</tspan>
        <tspan class="cls-3" x="63.51" y="0">0</tspan>
        <tspan class="cls-4" x="68.63" y="0">10</tspan>
        <tspan class="cls-3" x="77.86" y="0">0</tspan>
        <tspan class="cls-6" x="82.98" y="0">01</tspan>
        <tspan class="cls-3" x="92.2" y="0">0</tspan>
        <tspan class="cls-4" x="97.32" y="0">10</tspan>
        <tspan class="cls-10" x="106.55" y="0">1</tspan>
        <tspan class="cls-4" x="111.67" y="0">00</tspan>
        <tspan class="cls-3" x="120.89" y="0">1</tspan>
        <tspan class="cls-4" x="126.01" y="0">01</tspan>
        <tspan x="135.24" y="0">0</tspan>
    </text>
    <text class="cls-2" transform="translate(123.16 208.45) scale(0.99 1)">
        <tspan class="cls-5">10101</tspan>
        <tspan class="cls-4" x="25.6" y="0">00</tspan>
        <tspan class="cls-5" x="34.82" y="0">1</tspan>
        <tspan class="cls-4" x="39.94" y="0">00</tspan>
        <tspan class="cls-5" x="49.17" y="0">1</tspan>
        <tspan class="cls-4" x="54.29" y="0">01</tspan>
        <tspan class="cls-5" x="63.51" y="0">1</tspan>
        <tspan class="cls-4" x="68.63" y="0">10</tspan>
        <tspan class="cls-3" x="77.86" y="0">1</tspan>
        <tspan class="cls-6" x="82.98" y="0">01</tspan>
        <tspan class="cls-3" x="92.2" y="0">0</tspan>
        <tspan class="cls-4" x="97.32" y="0">10</tspan>
        <tspan class="cls-10" x="106.55" y="0">1</tspan>
        <tspan class="cls-4" x="111.67" y="0">01</tspan>
        <tspan class="cls-3" x="120.89" y="0">0</tspan>
        <tspan class="cls-4" x="126.01" y="0">10</tspan>
        <tspan class="cls-10" x="135.24" y="0">0</tspan>
        <tspan class="cls-4" x="140.36" y="0">10</tspan>
        <tspan class="cls-3" x="149.58" y="0">1</tspan>
        <tspan class="cls-4" x="154.7" y="0">01</tspan>
        <tspan class="cls-10" x="163.93" y="0">1</tspan>
        <tspan class="cls-4" x="169.05" y="0">10</tspan>
        <tspan class="cls-3" x="178.27" y="0">1</tspan>
        <tspan class="cls-4" x="183.39" y="0">0</tspan>
        <tspan x="188" y="0">1</tspan>
    </text>
    <text class="cls-2" transform="translate(116.03 219.72) scale(0.99 1)">
        <tspan class="cls-5">01011</tspan>
        <tspan class="cls-4" x="25.6" y="0">01</tspan>
        <tspan class="cls-5" x="34.82" y="0">0</tspan>
        <tspan class="cls-4" x="39.94" y="0">11</tspan>
        <tspan class="cls-5" x="49.17" y="0">0</tspan>
        <tspan class="cls-4" x="54.29" y="0">00</tspan>
        <tspan class="cls-5" x="63.51" y="0">1</tspan>
        <tspan class="cls-4" x="68.63" y="0">01</tspan>
        <tspan class="cls-3" x="77.86" y="0">0</tspan>
        <tspan class="cls-6" x="82.98" y="0">11</tspan>
        <tspan class="cls-3" x="92.2" y="0">0</tspan>
        <tspan class="cls-4" x="97.32" y="0">10</tspan>
        <tspan class="cls-10" x="106.55" y="0">1</tspan>
        <tspan class="cls-4" x="111.67" y="0">10</tspan>
        <tspan class="cls-3" x="120.89" y="0">1</tspan>
        <tspan class="cls-4" x="126.01" y="0">01</tspan>
        <tspan class="cls-10" x="135.24" y="0">0</tspan>
        <tspan class="cls-4" x="140.36" y="0">10</tspan>
        <tspan class="cls-3" x="149.58" y="0">1</tspan>
        <tspan class="cls-4" x="154.7" y="0">01</tspan>
        <tspan class="cls-10" x="163.93" y="0">1</tspan>
        <tspan class="cls-4" x="169.05" y="0">01</tspan>
        <tspan class="cls-3" x="178.27" y="0">1</tspan>
        <tspan class="cls-4" x="183.39" y="0">01</tspan>
        <tspan class="cls-10" x="192.62" y="0">0</tspan>
        <tspan class="cls-4" x="197.74" y="0">1</tspan>
        <tspan x="202.35" y="0">0</tspan>
    </text>
    <text class="cls-2" transform="translate(117.06 231.5) scale(0.99 1)">
        <tspan class="cls-5">01101</tspan>
        <tspan class="cls-4" x="25.6" y="0">11</tspan>
        <tspan class="cls-5" x="34.82" y="0">0</tspan>
        <tspan class="cls-4" x="39.94" y="0">1</tspan>
        <tspan class="cls-11" x="44.55" y="0"> </tspan>
        <tspan class="cls-12" x="46.09" y="0"> </tspan>
        <tspan class="cls-11" x="48.15" y="0"> </tspan>
        <tspan class="cls-12" x="49.69" y="0"> </tspan>
        <tspan class="cls-13" x="51.74" y="0"> </tspan>
        <tspan class="cls-5" x="54.3" y="0">1011</tspan>
        <tspan class="cls-4" x="74.78" y="0">1</tspan>
        <tspan class="cls-3" x="79.39" y="0">0</tspan>
        <tspan class="cls-4" x="84.51" y="0">11</tspan>
        <tspan class="cls-10" x="93.74" y="0">0</tspan>
        <tspan class="cls-4" x="98.86" y="0">11</tspan>
        <tspan class="cls-3" x="108.08" y="0">0</tspan>
        <tspan class="cls-4" x="113.2" y="0">10</tspan>
        <tspan class="cls-10" x="122.43" y="0">1</tspan>
        <tspan class="cls-4" x="127.55" y="0">11</tspan>
        <tspan class="cls-3" x="136.77" y="0">0</tspan>
        <tspan class="cls-4" x="141.89" y="0">11</tspan>
        <tspan class="cls-14" x="151.12" y="0"> </tspan>
        <tspan class="cls-15" x="153.17" y="0"> </tspan>
        <tspan class="cls-14" x="154.71" y="0" xml:space="preserve">   </tspan>
        <tspan class="cls-3" x="160.88" y="0">11011</tspan>
        <tspan class="cls-4" x="186.47" y="0">01</tspan>
        <tspan class="cls-10" x="195.7" y="0">1</tspan>
        <tspan x="200.82" y="0">0</tspan>
    </text>
    <text class="cls-2" transform="translate(117.06 242.77) scale(0.99 1)">
        <tspan class="cls-5">01110</tspan>
        <tspan class="cls-4" x="25.6" y="0">10</tspan>
        <tspan class="cls-5" x="34.82" y="0">0</tspan>
        <tspan class="cls-4" x="39.94" y="0">1</tspan>
        <tspan class="cls-11" x="44.55" y="0"> </tspan>
        <tspan class="cls-12" x="46.09" y="0"> </tspan>
        <tspan class="cls-11" x="48.15" y="0"> </tspan>
        <tspan class="cls-12" x="49.69" y="0"> </tspan>
        <tspan class="cls-13" x="51.74" y="0"> </tspan>
        <tspan class="cls-5" x="54.3" y="0">0111</tspan>
        <tspan class="cls-4" x="74.78" y="0">0</tspan>
        <tspan class="cls-3" x="79.39" y="0">1</tspan>
        <tspan class="cls-4" x="84.51" y="0">11</tspan>
        <tspan class="cls-10" x="93.74" y="0">0</tspan>
        <tspan class="cls-4" x="98.86" y="0">10</tspan>
        <tspan class="cls-3" x="108.08" y="0">1</tspan>
        <tspan class="cls-4" x="113.2" y="0">01</tspan>
        <tspan class="cls-10" x="122.43" y="0">0</tspan>
        <tspan class="cls-4" x="127.55" y="0">10</tspan>
        <tspan class="cls-3" x="136.77" y="0">1</tspan>
        <tspan class="cls-4" x="141.89" y="0">00</tspan>
        <tspan class="cls-14" x="151.12" y="0"> </tspan>
        <tspan class="cls-15" x="153.17" y="0"> </tspan>
        <tspan class="cls-14" x="154.71" y="0" xml:space="preserve">   </tspan>
        <tspan class="cls-3" x="160.88" y="0">10111</tspan>
        <tspan class="cls-4" x="186.47" y="0">01</tspan>
        <tspan class="cls-10" x="195.7" y="0">0</tspan>
        <tspan x="200.82" y="0">0</tspan>
    </text>
    <text class="cls-2" transform="translate(117.06 254.05) scale(0.99 1)">
        <tspan class="cls-5">10011</tspan>
        <tspan class="cls-4" x="25.6" y="0">00</tspan>
        <tspan class="cls-5" x="34.82" y="0">1</tspan>
        <tspan class="cls-4" x="39.94" y="0">0</tspan>
        <tspan class="cls-11" x="44.55" y="0"> </tspan>
        <tspan class="cls-12" x="46.09" y="0"> </tspan>
        <tspan class="cls-11" x="48.15" y="0"> </tspan>
        <tspan class="cls-12" x="49.69" y="0"> </tspan>
        <tspan class="cls-13" x="51.74" y="0"> </tspan>
        <tspan class="cls-5" x="54.3" y="0">0110</tspan>
        <tspan class="cls-4" x="74.78" y="0">1</tspan>
        <tspan class="cls-3" x="79.39" y="0">1</tspan>
        <tspan class="cls-4" x="84.51" y="0">10</tspan>
        <tspan class="cls-10" x="93.74" y="0">1</tspan>
        <tspan class="cls-4" x="98.86" y="0">11</tspan>
        <tspan class="cls-3" x="108.08" y="0">0</tspan>
        <tspan class="cls-4" x="113.2" y="0">11</tspan>
        <tspan class="cls-10" x="122.43" y="0">0</tspan>
        <tspan class="cls-4" x="127.55" y="0">10</tspan>
        <tspan class="cls-3" x="136.77" y="0">1</tspan>
        <tspan class="cls-4" x="141.89" y="0">01</tspan>
        <tspan class="cls-14" x="151.12" y="0"> </tspan>
        <tspan class="cls-15" x="153.17" y="0"> </tspan>
        <tspan class="cls-14" x="154.71" y="0" xml:space="preserve">   </tspan>
        <tspan class="cls-3" x="160.88" y="0">01101</tspan>
        <tspan class="cls-4" x="186.47" y="0">01</tspan>
        <tspan class="cls-10" x="195.7" y="0">1</tspan>
        <tspan x="200.82" y="0">0</tspan>
    </text>
    <text class="cls-2" transform="translate(117.06 265.82) scale(0.99 1)">
        <tspan class="cls-5">00101</tspan>
        <tspan class="cls-4" x="25.6" y="0">11</tspan>
        <tspan class="cls-5" x="34.82" y="0">0</tspan>
        <tspan class="cls-4" x="39.94" y="0">1</tspan>
        <tspan class="cls-11" x="44.55" y="0"> </tspan>
        <tspan class="cls-12" x="46.09" y="0"> </tspan>
        <tspan class="cls-11" x="48.15" y="0"> </tspan>
        <tspan class="cls-12" x="49.69" y="0"> </tspan>
        <tspan class="cls-13" x="51.74" y="0"> </tspan>
        <tspan class="cls-5" x="54.3" y="0">1010</tspan>
        <tspan class="cls-4" x="74.78" y="0">1</tspan>
        <tspan class="cls-3" x="79.39" y="0">1</tspan>
        <tspan class="cls-4" x="84.51" y="0">01</tspan>
        <tspan class="cls-10" x="93.74" y="0">0</tspan>
        <tspan class="cls-4" x="98.86" y="0">11</tspan>
        <tspan class="cls-3" x="108.08" y="0">0</tspan>
        <tspan class="cls-4" x="113.2" y="0">01</tspan>
        <tspan class="cls-10" x="122.43" y="0">1</tspan>
        <tspan class="cls-4" x="127.55" y="0">00</tspan>
        <tspan class="cls-3" x="136.77" y="0">0</tspan>
        <tspan class="cls-4" x="141.89" y="0">01</tspan>
        <tspan class="cls-14" x="151.12" y="0"> </tspan>
        <tspan class="cls-15" x="153.17" y="0"> </tspan>
        <tspan class="cls-14" x="154.71" y="0" xml:space="preserve">   </tspan>
        <tspan class="cls-3" x="160.88" y="0">11011</tspan>
        <tspan class="cls-4" x="186.47" y="0">01</tspan>
        <tspan class="cls-10" x="195.7" y="0">0</tspan>
        <tspan x="200.82" y="0">1</tspan>
    </text>
    <text class="cls-2" transform="translate(117.06 277.1) scale(0.99 1)">
        <tspan class="cls-5">11011</tspan>
        <tspan class="cls-4" x="25.6" y="0">00</tspan>
        <tspan class="cls-5" x="34.82" y="0">1</tspan>
        <tspan class="cls-4" x="39.94" y="0">0</tspan>
        <tspan class="cls-11" x="44.55" y="0"> </tspan>
        <tspan class="cls-12" x="46.09" y="0"> </tspan>
        <tspan class="cls-11" x="48.15" y="0"> </tspan>
        <tspan class="cls-12" x="49.69" y="0"> </tspan>
        <tspan class="cls-13" x="51.74" y="0"> </tspan>
        <tspan class="cls-5" x="54.3" y="0">1010</tspan>
        <tspan class="cls-4" x="74.78" y="0">0</tspan>
        <tspan class="cls-3" x="79.39" y="0">1</tspan>
        <tspan class="cls-4" x="84.51" y="0">00</tspan>
        <tspan class="cls-10" x="93.74" y="0">1</tspan>
        <tspan class="cls-4" x="98.86" y="0">01</tspan>
        <tspan class="cls-3" x="108.08" y="0">0</tspan>
        <tspan class="cls-4" x="113.2" y="0">10</tspan>
        <tspan class="cls-10" x="122.43" y="0">1</tspan>
        <tspan class="cls-4" x="127.55" y="0">00</tspan>
        <tspan class="cls-3" x="136.77" y="0">1</tspan>
        <tspan class="cls-4" x="141.89" y="0">00</tspan>
        <tspan class="cls-14" x="151.12" y="0"> </tspan>
        <tspan class="cls-15" x="153.17" y="0"> </tspan>
        <tspan class="cls-14" x="154.71" y="0" xml:space="preserve">   </tspan>
        <tspan class="cls-3" x="160.88" y="0">11100</tspan>
        <tspan class="cls-4" x="186.47" y="0">10</tspan>
        <tspan class="cls-10" x="195.7" y="0">1</tspan>
        <tspan x="200.82" y="0">1</tspan>
    </text>
    <path class="cls-16"
        d="M611.5,295.05c-2-.69-3.91-1.51-5.92-2-6.4-1.69-12.59-4-17.91-7.92-14.3-10.66-24.91-24-28.71-41.83a72.69,72.69,0,0,1-1.24-14.07c-.17-12-.06-24.05-.07-36.08v-4.6c-5-1.68-9.54-2.89-13.83-4.71-9.87-4.18-17.51-11.36-24.59-19.17a7.59,7.59,0,0,1-2.08-4.46c0-2.45-1.18-4.19-2.43-5.93a117,117,0,0,1-15.48-29.45,134.66,134.66,0,0,1-6.74-27.33,87.77,87.77,0,0,1,0-22.67c1.6-12.59,8-21.29,19.95-25.56A137.27,137.27,0,0,1,527,45.15a11.2,11.2,0,0,0,6-3.32c5.62-6.06,14.59-1.91,15.76,4.5,1.07,6-4.35,13.18-9.89,11.18-5.74-2.08-10.56-.37-15.66.84a56.65,56.65,0,0,0-9.47,3.41c-5.21,2.28-7.9,6.59-9,12-2.38,11.86-.89,23.54,2.22,35,3.58,13.21,8.67,25.84,16.59,37.17a12.12,12.12,0,0,0,5.53,4.88,14.69,14.69,0,0,1,5,4,52,52,0,0,0,15.48,12.07c11.27,5.68,22.29,4.32,32.49-2.68,4.14-2.85,7.61-6.66,11.41-10,1.38-1.22,2.67-2.94,4.29-3.41,3.25-.94,4.89-3.27,6.56-5.8,10.11-15.28,15.94-32.11,18.57-50.19a67.89,67.89,0,0,0-.21-20.13c-1-6.35-4.23-11.12-10.25-13.36a164.12,164.12,0,0,0-16.87-5c-1.47-.37-3.27.26-4.85.68-5.48,1.49-10.09-.68-11.85-5.68a9.57,9.57,0,0,1,3.73-11c3.43-2.19,8.45-2,11.17,1.13,2.06,2.32,4.42,3.14,7.25,3.89,6.63,1.76,13.37,3.2,19.47,6.69a25.15,25.15,0,0,1,12.34,15.36,66.58,66.58,0,0,1,2.37,23.4,135.68,135.68,0,0,1-6,30.09,112.26,112.26,0,0,1-14.4,29.95c-2.15,3.19-4.76,6.08-4.76,10.34,0,1.17-1.06,2.49-1.94,3.47-7.78,8.59-16.32,16.21-27.42,20.26-3.44,1.26-7,2.12-10.84,3.24-.06,1.12-.19,2.44-.18,3.76,0,12.7-.13,25.4.07,38.1.32,20.44,9.26,36.3,27.28,45.83,18.84,10,37.7,8.66,55.33-3.74,12.11-8.52,18.47-20.65,21-35a8.57,8.57,0,0,0,.11-1.52c0-13.87,0-27.74,0-42.05-12-2.89-21-9.55-26.17-20.95a33.11,33.11,0,0,1-1.92-22.19,35.18,35.18,0,0,1,36.28-26.95c13.51.86,29.35,9.32,33.08,30.31,1.64,9.29-.82,18.14-6.66,25.75a36.8,36.8,0,0,1-22.47,14v5.25c0,10.67.16,21.34-.06,32-.4,19.43-8.2,35.29-22.68,48.34-8,7.19-16.74,12.14-27.11,14.48-1.69.38-3.33,1-5,1.54Zm68-159.67c-12.69-.61-23.46,11.14-23.32,23.56a23.79,23.79,0,0,0,23.91,23.18c11,0,22.83-9.38,23-23.53C703.23,146.37,692.27,134.65,679.55,135.38Z"
        transform="translate(-459.16 -38.84)" />
    <path class="cls-16"
        d="M679.59,141.35c9.8-.51,17.38,7.83,17.59,16.89.22,9.55-7.91,17.93-17.29,17.9-9.75,0-17.65-8.38-17.67-17.11C662.21,149.32,669.83,140.94,679.59,141.35Z"
        transform="translate(-459.16 -38.84)" />
</svg>