<?xml version="1.0" encoding="utf-8"?>
<!-- Generator: Adobe Illustrator 25.0.1, SVG Export Plug-In . SVG Version: 6.00 Build 0)  -->
<svg version="1.2" baseProfile="tiny" id="Amsterdam_UMC_Center_for_Critical_Care_Computational_Intelligence"
	 xmlns="http://www.w3.org/2000/svg" xmlns:xlink="http://www.w3.org/1999/xlink" x="0px" y="0px" viewBox="0 0 512 512"
	 overflow="visible" xml:space="preserve">
<g id="C4I_Text">
	<path fill="#EF791B" d="M46.4,409.3c2.5-2.5,5.9-3.8,9.5-3.7c3-0.1,5.9,0.8,8.4,2.4c0.6,0.4,0.8,1.2,0.4,1.8c0,0.1-0.1,0.1-0.1,0.2
		l-0.6,1c-0.5,0.8-1.2,0.9-2,0.4c-1.7-1.1-3.7-1.7-5.8-1.8c-2.4-0.1-4.7,0.7-6.3,2.4c-1.5,1.7-2.3,3.8-2.3,6.1
		c-0.1,2.3,0.8,4.6,2.3,6.3c1.6,1.8,3.9,2.7,6.3,2.6c2.2,0,4.4-0.8,6.2-2.1c0.5-0.5,1.3-0.6,1.8-0.1c0.1,0.1,0.2,0.2,0.2,0.3l0.7,1
		c0.5,0.5,0.5,1.3,0,1.8c-0.1,0.1-0.1,0.1-0.2,0.2c-2.6,2-5.8,3.1-9,3.1c-3.6,0.2-7-1.2-9.6-3.7c-2.4-2.5-3.8-5.8-3.7-9.3
		C42.5,415.1,43.9,411.7,46.4,409.3z"/>
	<path fill="#EF791B" d="M69.4,415.3c1.8-1.8,4.2-2.7,6.7-2.6c2.2-0.1,4.4,0.7,6,2.4c1.5,1.7,2.3,3.9,2.2,6.2c0,0.4-0.2,0.8-0.5,1.1
		c-0.3,0.3-0.7,0.5-1.1,0.5H71.4c0.1,1.4,0.7,2.7,1.8,3.7c1,0.8,2.3,1.3,3.7,1.2c1.4,0,2.8-0.5,3.9-1.2c0.9-0.4,1.6-0.3,2,0.5
		l0.4,0.7c0.4,0.6,0.3,1.4-0.2,1.8c-0.1,0.1-0.2,0.1-0.3,0.2c-1.9,1.2-4,1.8-6.2,1.8c-2.7,0.1-5.2-0.9-7.1-2.7
		c-1.8-1.8-2.8-4.2-2.7-6.7C66.7,419.5,67.6,417.1,69.4,415.3z M79.7,420c0-1.1-0.4-2.1-1.1-2.9c-0.7-0.7-1.6-1.1-2.6-1.1
		c-1.1,0-2.1,0.4-2.9,1.1c-0.8,0.8-1.4,1.8-1.5,2.9H79.7z"/>
	<path fill="#EF791B" d="M86.8,414.6c-0.1-0.7,0.4-1.4,1.1-1.5c0.1,0,0.2,0,0.4,0h1.4c0.7-0.1,1.4,0.4,1.5,1.1c0,0.1,0,0.3,0,0.4
		v1.1l-0.1,0.8h0.1c0.6-1.1,1.4-2,2.4-2.6c1.2-0.8,2.7-1.2,4.1-1.2c4.3,0,6.4,2.3,6.4,6.8v10c0.1,0.7-0.4,1.4-1.1,1.5
		c-0.1,0-0.2,0-0.4,0H101c-0.7,0.1-1.4-0.4-1.5-1.1c0-0.1,0-0.2,0-0.4v-9.1c0.1-1-0.2-1.9-0.6-2.7c-0.5-0.7-1.4-1-2.2-0.9
		c-1.5,0-2.9,0.6-3.8,1.7c-1,1.2-1.5,2.7-1.5,4.2v6.9c0.1,0.7-0.4,1.4-1.1,1.5c-0.1,0-0.3,0-0.4,0h-1.6c-0.7,0.1-1.4-0.4-1.5-1.1
		c0-0.1,0-0.3,0-0.4L86.8,414.6z"/>
	<path fill="#EF791B" d="M108.5,416.9h-1c-0.7,0.1-1.4-0.4-1.5-1.1c0-0.1,0-0.2,0-0.4v-0.6c-0.1-0.7,0.4-1.4,1.1-1.5
		c0.1,0,0.3,0,0.4,0h1v-3.7c-0.1-0.7,0.4-1.4,1.1-1.5c0.1,0,0.3,0,0.4,0h1.4c0.7-0.1,1.4,0.4,1.5,1.1c0,0.1,0,0.3,0,0.4v3.7h2.7
		c0.7-0.1,1.4,0.4,1.5,1.1c0,0.1,0,0.3,0,0.4v0.6c0.1,0.7-0.4,1.4-1.1,1.5c-0.1,0-0.2,0-0.4,0h-2.7v7c-0.2,1.6,1,3.1,2.6,3.3
		c0.1,0,0.2,0,0.4,0c0.4,0,0.9,0.1,1.2,0.4c0.3,0.3,0.4,0.7,0.3,1v1.1c0,1-0.6,1.5-1.9,1.5c-1.8,0-3.6-0.5-5-1.6
		c-1.5-1.2-2.3-3-2.2-4.9L108.5,416.9z"/>
	<path fill="#EF791B" d="M121.2,415.3c1.8-1.8,4.2-2.7,6.7-2.6c2.2-0.1,4.4,0.7,6,2.4c1.5,1.7,2.3,3.9,2.2,6.2
		c0,0.4-0.2,0.8-0.5,1.1c-0.3,0.3-0.7,0.5-1.1,0.5h-11.2c0.1,1.4,0.7,2.7,1.8,3.7c1,0.9,2.4,1.3,3.7,1.3c1.4,0,2.8-0.5,4-1.2
		c0.9-0.4,1.6-0.3,2,0.5l0.4,0.7c0.4,0.6,0.3,1.4-0.3,1.8c-0.1,0.1-0.2,0.1-0.2,0.1c-1.9,1.2-4,1.8-6.2,1.8
		c-2.7,0.1-5.2-0.9-7.1-2.7c-1.8-1.8-2.8-4.2-2.7-6.7C118.5,419.5,119.5,417.1,121.2,415.3z M131.5,420c0-1.1-0.4-2.1-1.1-2.9
		c-0.7-0.7-1.6-1.1-2.6-1.1c-1.1,0-2.1,0.4-2.9,1.1c-0.8,0.8-1.4,1.8-1.5,2.9H131.5z"/>
	<path fill="#EF791B" d="M138.7,414.6c-0.1-0.7,0.4-1.4,1.1-1.5c0.1,0,0.3,0,0.4,0h1.4c0.7-0.1,1.4,0.4,1.5,1.1c0,0.1,0,0.3,0,0.4
		v1.7l-0.1,1.2h0.1c0.4-1.2,1.1-2.3,2.1-3.2c0.9-0.9,2-1.4,3.3-1.4c0.9,0,1.4,0.5,1.4,1.5v1.4c0,1-0.5,1.5-1.5,1.5
		c-1.5-0.1-2.9,0.7-3.7,1.9c-0.9,1.4-1.3,3-1.3,4.6v5.8c0.1,0.7-0.4,1.4-1.1,1.5c-0.1,0-0.2,0-0.4,0h-1.6c-0.7,0.1-1.4-0.4-1.5-1.1
		c0-0.1,0-0.2,0-0.4L138.7,414.6z"/>
	<path fill="#EF791B" d="M160.7,416.9h-0.9c-0.7,0.1-1.4-0.4-1.5-1.1c0-0.1,0-0.2,0-0.4v-0.6c-0.1-0.7,0.4-1.4,1.1-1.5
		c0.1,0,0.2,0,0.4,0h0.9v-0.8c0-1,0.2-2,0.5-2.9c0.3-0.7,0.8-1.4,1.4-1.9c0.6-0.5,1.2-0.8,1.8-1.1c0.6-0.3,1.2-0.5,1.8-0.6
		c0.5-0.1,1-0.1,1.5-0.1h0.6c0.7-0.1,1.4,0.4,1.5,1.1c0,0.1,0,0.3,0,0.4v0.9c0,0.9-0.5,1.4-1.5,1.4c-0.3,0-0.6,0.1-0.9,0.1
		c-0.3,0.1-0.6,0.2-0.9,0.4c-0.4,0.2-0.6,0.5-0.8,0.9c-0.2,0.5-0.3,1-0.3,1.5v0.7h2.4c0.7-0.1,1.4,0.4,1.5,1.1c0,0.1,0,0.2,0,0.4
		v0.6c0.1,0.7-0.4,1.4-1.1,1.5c-0.1,0-0.2,0-0.4,0h-2.4v12.7c0.1,0.7-0.4,1.4-1.1,1.5c-0.1,0-0.2,0-0.4,0h-1.6
		c-0.7,0.1-1.4-0.4-1.5-1.1c0-0.1,0-0.3,0-0.4L160.7,416.9z"/>
	<path fill="#EF791B" d="M172.5,415.3c4.1-3.6,10.2-3.6,14.3,0c3.7,3.5,3.9,9.3,0.5,13c-0.1,0.2-0.3,0.3-0.5,0.5
		c-4.1,3.6-10.2,3.6-14.3,0c-3.7-3.5-3.9-9.3-0.4-13C172.3,415.6,172.4,415.5,172.5,415.3z M175.8,426.1c1,1,2.4,1.6,3.9,1.6
		c1.5,0,2.9-0.5,3.9-1.6c2.1-2.3,2.1-5.8,0-8c-2.1-2.1-5.6-2.1-7.7,0c-1.1,1.1-1.6,2.5-1.6,4C174.2,423.6,174.8,425,175.8,426.1z"/>
	<path fill="#EF791B" d="M192.5,414.6c-0.1-0.7,0.4-1.4,1.1-1.5c0.1,0,0.2,0,0.4,0h1.4c0.7-0.1,1.4,0.4,1.5,1.1c0,0.1,0,0.3,0,0.4
		v1.7l-0.1,1.2h0.1c0.4-1.2,1.1-2.3,2.1-3.2c0.9-0.9,2-1.4,3.3-1.4c0.9,0,1.4,0.5,1.4,1.5v1.4c0,1-0.5,1.5-1.5,1.5
		c-1.5-0.1-2.9,0.7-3.7,1.9c-0.9,1.4-1.3,3-1.3,4.6v5.8c0.1,0.7-0.4,1.4-1.1,1.5c-0.1,0-0.2,0-0.4,0h-1.6c-0.7,0.1-1.4-0.4-1.5-1.1
		c0-0.1,0-0.3,0-0.4V414.6z"/>
	<path fill="#EF791B" d="M216.4,409.3c2.5-2.5,5.9-3.8,9.5-3.7c3-0.1,5.9,0.8,8.4,2.4c0.6,0.4,0.8,1.2,0.4,1.8
		c0,0.1-0.1,0.1-0.1,0.2l-0.6,1c-0.5,0.8-1.2,0.9-2,0.4c-1.7-1.1-3.7-1.7-5.8-1.8c-2.4-0.1-4.7,0.7-6.3,2.4
		c-1.5,1.7-2.3,3.8-2.3,6.1c-0.1,2.3,0.8,4.6,2.3,6.3c1.6,1.8,3.9,2.7,6.3,2.6c2.3,0,4.5-0.8,6.3-2.2c0.5-0.5,1.3-0.6,1.8-0.1
		c0.1,0.1,0.2,0.2,0.2,0.3l0.7,1c0.5,0.5,0.5,1.3,0,1.8c-0.1,0.1-0.1,0.1-0.2,0.2c-2.6,2-5.8,3.1-9,3.1c-3.6,0.2-7-1.2-9.6-3.7
		c-2.4-2.5-3.8-5.8-3.7-9.3C212.6,415,214,411.7,216.4,409.3z"/>
	<path fill="#EF791B" d="M237.8,414.6c-0.1-0.7,0.4-1.4,1.1-1.5c0.1,0,0.2,0,0.4,0h1.4c0.7-0.1,1.4,0.4,1.5,1.1c0,0.1,0,0.3,0,0.4
		v1.7l-0.1,1.2h0.1c0.4-1.2,1.1-2.3,2.1-3.2c0.9-0.9,2.1-1.4,3.3-1.3c0.9,0,1.4,0.5,1.4,1.5v1.4c0,1-0.5,1.5-1.5,1.5
		c-1.5-0.1-2.9,0.7-3.7,1.9c-0.9,1.4-1.3,3-1.3,4.6v5.8c0.1,0.7-0.4,1.4-1.1,1.5c-0.1,0-0.3,0-0.4,0h-1.6c-0.7,0.1-1.4-0.4-1.5-1.1
		c0-0.1,0-0.3,0-0.4L237.8,414.6z"/>
	<path fill="#EF791B" d="M250.7,408.6v-1.1c-0.1-0.7,0.4-1.4,1.1-1.5c0.1,0,0.2,0,0.4,0h1.5c0.7-0.1,1.4,0.4,1.5,1.1
		c0,0.1,0,0.3,0,0.4v1.1c0,1-0.5,1.4-1.5,1.4h-1.6c-0.7,0.1-1.3-0.4-1.4-1.1C250.6,408.8,250.6,408.7,250.7,408.6z M250.7,414.6
		c-0.1-0.7,0.4-1.4,1.1-1.5c0.1,0,0.2,0,0.4,0h1.5c0.7-0.1,1.4,0.4,1.5,1.1c0,0.1,0,0.2,0,0.4v15c0.1,0.7-0.4,1.4-1.1,1.5
		c-0.1,0-0.3,0-0.4,0h-1.6c-0.7,0.1-1.4-0.4-1.5-1.1c0-0.1,0-0.3,0-0.4L250.7,414.6z"/>
	<path fill="#EF791B" d="M260,416.9h-1c-0.7,0.1-1.4-0.4-1.5-1.1c0-0.1,0-0.2,0-0.4v-0.6c-0.1-0.7,0.4-1.4,1.1-1.5
		c0.1,0,0.3,0,0.4,0h1v-3.7c-0.1-0.7,0.4-1.4,1.1-1.5c0.1,0,0.3,0,0.4,0h1.4c0.7-0.1,1.4,0.3,1.5,1c0,0.1,0,0.3,0,0.4v3.7h2.7
		c0.7-0.1,1.4,0.4,1.5,1.1c0,0.1,0,0.3,0,0.4v0.6c0.1,0.7-0.4,1.4-1.1,1.5c-0.1,0-0.2,0-0.4,0h-2.7v7c-0.2,1.6,1,3.1,2.6,3.3
		c0.1,0,0.2,0,0.4,0c0.4,0,0.9,0.1,1.2,0.4c0.3,0.3,0.4,0.7,0.3,1v1.1c0,1-0.6,1.5-1.9,1.5c-1.8,0-3.6-0.5-5-1.6
		c-1.5-1.2-2.3-3-2.2-4.9L260,416.9z"/>
	<path fill="#EF791B" d="M271.4,408.6v-1.1c-0.1-0.7,0.4-1.4,1.1-1.5c0.1,0,0.2,0,0.4,0h1.6c0.7-0.1,1.4,0.4,1.5,1.1
		c0,0.1,0,0.3,0,0.4v1.1c0,1-0.5,1.4-1.5,1.4h-1.6c-0.7,0.1-1.4-0.4-1.5-1.1C271.4,408.8,271.4,408.7,271.4,408.6z M271.4,414.6
		c-0.1-0.7,0.4-1.4,1.1-1.5c0.1,0,0.2,0,0.4,0h1.6c0.7-0.1,1.4,0.4,1.5,1.1c0,0.1,0,0.2,0,0.4v15c0.1,0.7-0.4,1.4-1.1,1.5
		c-0.1,0-0.2,0-0.4,0h-1.6c-0.7,0.1-1.4-0.4-1.5-1.1c0-0.1,0-0.3,0-0.4V414.6z"/>
	<path fill="#EF791B" d="M281.4,415.4c1.9-1.9,4.5-2.9,7.2-2.7c2.1,0,4.2,0.6,6,1.8c0.7,0.5,0.8,1.2,0.3,2l-0.5,0.7
		c-0.4,0.7-1.3,0.9-1.9,0.4c0,0-0.1,0-0.1-0.1c-1.1-0.7-2.3-1.1-3.6-1.1c-1.5-0.1-3,0.5-4,1.6c-1,1.1-1.6,2.5-1.5,3.9
		c0,3,2.4,5.5,5.4,5.6c0.1,0,0.2,0,0.3,0c1.5,0,2.9-0.5,4.1-1.4c0.9-0.5,1.6-0.3,2,0.5l0.4,0.7c0.4,0.6,0.3,1.4-0.2,1.8
		c-0.1,0-0.1,0.1-0.2,0.1c-1.9,1.4-4.2,2.1-6.5,2.1c-2.7,0.1-5.3-0.8-7.2-2.7C277.7,425,277.7,419,281.4,415.4c0-0.1,0-0.1,0-0.1
		L281.4,415.4z"/>
	<path fill="#EF791B" d="M297.8,422.9c0.7-0.9,1.7-1.5,2.8-1.9c1.1-0.4,2.2-0.7,3.4-0.9c1.1-0.2,2.3-0.2,3.5-0.2h0.8v-0.4
		c0-2.1-1.1-3.2-3.4-3.2c-1.3,0-2.6,0.4-3.8,1c-0.9,0.4-1.6,0.2-2-0.6l-0.4-0.7c-0.4-0.6-0.3-1.4,0.3-1.8c0.1-0.1,0.2-0.1,0.3-0.2
		c1.9-1,3.9-1.5,6-1.5c2-0.1,4,0.6,5.6,1.9c1.4,1.4,2.1,3.3,2,5.3v9.8c0.1,0.7-0.4,1.4-1.1,1.5c-0.1,0-0.2,0-0.4,0h-1.2
		c-0.7,0.1-1.4-0.4-1.5-1.1c0-0.1,0-0.2,0-0.4v-0.7l0.1-0.8h-0.1c-0.1,0.1-0.1,0.3-0.2,0.4c-0.1,0.1-0.3,0.4-0.6,0.8
		c-0.3,0.4-0.7,0.7-1.1,1c-0.5,0.3-1.1,0.6-1.6,0.8c-0.7,0.2-1.4,0.4-2.1,0.4c-1.6,0-3.1-0.5-4.3-1.5c-1.2-1-1.8-2.4-1.8-3.9
		C296.7,424.9,297.1,423.8,297.8,422.9z M302,427.3c0.6,0.5,1.3,0.7,2,0.7c1.2,0,2.3-0.5,3-1.5c0.8-0.9,1.2-2,1.2-3.2v-0.7h-0.8
		c-4.2,0-6.2,1-6.2,3C301.3,426.3,301.5,426.9,302,427.3z"/>
	<path fill="#EF791B" d="M316.3,407.6c-0.1-0.7,0.4-1.4,1.1-1.5c0.1,0,0.2,0,0.4,0h1.6c0.7-0.1,1.4,0.4,1.5,1.1c0,0.1,0,0.2,0,0.4
		v17.5c0,1.3,0.5,2,1.4,2.1c0.6,0,1.1,0.5,1.1,1.1c0,0,0,0.1,0,0.1v1.2c0.1,0.7-0.4,1.4-1.1,1.5c-0.1,0-0.2,0-0.4,0
		c-0.6,0-1.3-0.1-1.9-0.2c-0.6-0.2-1.2-0.4-1.8-0.7c-0.6-0.4-1.1-1.1-1.4-1.8c-0.4-1-0.5-2-0.5-3.1V407.6z"/>
	<path fill="#EF791B" d="M336.8,409.3c2.5-2.5,5.9-3.8,9.5-3.7c3-0.1,5.9,0.8,8.4,2.4c0.6,0.4,0.8,1.2,0.4,1.8
		c0,0.1-0.1,0.1-0.1,0.2l-0.6,1c-0.5,0.8-1.2,0.9-2.1,0.4c-1.7-1.1-3.7-1.7-5.8-1.8c-2.4-0.1-4.7,0.7-6.3,2.4
		c-1.5,1.7-2.3,3.8-2.3,6.1c-0.1,2.4,0.8,4.6,2.3,6.4c1.6,1.8,3.9,2.7,6.3,2.6c2.3,0,4.5-0.8,6.3-2.2c0.5-0.5,1.3-0.6,1.9-0.1
		c0.1,0.1,0.2,0.2,0.2,0.3l0.7,1c0.5,0.5,0.5,1.3,0,1.9c-0.1,0.1-0.1,0.1-0.2,0.2c-2.6,2-5.8,3.1-9,3.1c-3.6,0.2-7-1.2-9.6-3.7
		c-2.4-2.5-3.8-5.8-3.7-9.3C333,415,334.3,411.7,336.8,409.3z"/>
	<path fill="#EF791B" d="M358.1,422.9c0.7-0.9,1.7-1.5,2.8-1.9c1.1-0.4,2.2-0.7,3.4-0.9c1.1-0.2,2.3-0.2,3.5-0.2h0.8v-0.4
		c0-2.1-1.1-3.2-3.4-3.2c-1.3,0-2.6,0.4-3.8,1c-0.6,0.4-1.5,0.2-1.9-0.4c0-0.1-0.1-0.1-0.1-0.2l-0.4-0.7c-0.4-0.6-0.3-1.4,0.3-1.8
		c0.1-0.1,0.2-0.1,0.3-0.2c1.9-1,3.9-1.5,6-1.5c2-0.1,4,0.6,5.6,1.9c1.4,1.4,2.1,3.3,2,5.3v9.8c0.1,0.7-0.4,1.4-1.1,1.5
		c-0.1,0-0.2,0-0.4,0h-1.2c-0.7,0.1-1.4-0.4-1.5-1.1c0-0.1,0-0.2,0-0.4v-0.7l0.1-0.8h-0.1c0,0.1-0.1,0.2-0.2,0.4
		c-0.2,0.3-0.4,0.6-0.6,0.8c-0.3,0.4-0.7,0.7-1.1,1c-0.5,0.3-1.1,0.6-1.6,0.8c-0.7,0.2-1.4,0.4-2.1,0.4c-1.6,0-3.1-0.5-4.3-1.5
		c-1.2-1-1.8-2.4-1.8-3.9C357,424.9,357.4,423.8,358.1,422.9z M362.3,427.3c0.6,0.5,1.3,0.7,2,0.7c1.2,0,2.3-0.5,3-1.5
		c0.8-0.9,1.2-2,1.2-3.2v-0.7h-0.8c-4.2,0-6.2,1-6.2,3C361.6,426.3,361.8,426.9,362.3,427.3z"/>
	<path fill="#EF791B" d="M376.6,414.6c-0.1-0.7,0.4-1.4,1.1-1.5c0.1,0,0.3,0,0.4,0h1.4c0.7-0.1,1.4,0.4,1.5,1.1c0,0.1,0,0.3,0,0.4
		v1.7l-0.1,1.2h0.1c0.4-1.2,1.1-2.3,2.1-3.2c0.9-0.9,2-1.4,3.3-1.4c0.9,0,1.4,0.5,1.4,1.5v1.4c0,1-0.5,1.5-1.5,1.5
		c-1.5-0.1-2.9,0.7-3.7,1.9c-0.9,1.4-1.3,3-1.3,4.6v5.8c0.1,0.7-0.4,1.4-1.1,1.5c-0.1,0-0.2,0-0.4,0h-1.6c-0.7,0.1-1.4-0.4-1.5-1.1
		c0-0.1,0-0.2,0-0.4L376.6,414.6z"/>
	<path fill="#EF791B" d="M390.3,415.3c1.8-1.8,4.2-2.7,6.7-2.6c2.2-0.1,4.4,0.7,6,2.4c1.5,1.7,2.3,3.9,2.2,6.2
		c0,0.4-0.2,0.8-0.5,1.1c-0.3,0.3-0.7,0.5-1.1,0.5h-11.2c0.1,1.4,0.7,2.7,1.8,3.7c1.1,0.8,2.4,1.3,3.7,1.2c1.4,0,2.8-0.5,4-1.2
		c0.9-0.4,1.6-0.3,2,0.5l0.4,0.7c0.4,0.6,0.3,1.4-0.2,1.8c-0.1,0.1-0.2,0.1-0.3,0.2c-1.9,1.2-4,1.8-6.2,1.8
		c-2.7,0.1-5.2-0.9-7.2-2.7C386.8,424.9,386.8,419,390.3,415.3L390.3,415.3z M400.6,420c0-1.1-0.4-2.1-1.1-2.9
		c-0.7-0.7-1.6-1.1-2.6-1.1c-1.1,0-2.1,0.4-2.9,1.1c-0.8,0.8-1.4,1.8-1.5,2.9H400.6z"/>
	<path fill="#EF791B" d="M46.4,451.5c2.5-2.5,5.9-3.8,9.5-3.7c3-0.1,5.9,0.8,8.4,2.5c0.6,0.4,0.8,1.2,0.4,1.8c0,0.1-0.1,0.1-0.1,0.2
		l-0.6,1c-0.5,0.8-1.2,0.9-2,0.4c-1.7-1.1-3.8-1.7-5.8-1.7c-2.4-0.1-4.7,0.7-6.3,2.4c-1.5,1.7-2.3,3.8-2.3,6.1
		c-0.1,2.3,0.8,4.6,2.3,6.3c1.6,1.8,3.9,2.7,6.3,2.6c2.2-0.1,4.4-0.8,6.2-2.2c0.5-0.5,1.3-0.6,1.8-0.1c0.1,0.1,0.2,0.2,0.2,0.3
		l0.7,1c0.5,0.5,0.5,1.3,0,1.8c-0.1,0.1-0.1,0.1-0.2,0.2c-2.6,2-5.8,3.1-9,3.1c-3.6,0.2-7-1.2-9.6-3.7c-2.4-2.5-3.8-5.8-3.7-9.3
		C42.5,457.2,43.9,453.9,46.4,451.5z"/>
	<path fill="#EF791B" d="M69.6,457.5c4.1-3.6,10.2-3.6,14.3,0c3.7,3.5,3.9,9.3,0.4,13c-0.1,0.1-0.3,0.3-0.4,0.4
		c-4.1,3.5-10.2,3.5-14.3,0c-3.7-3.5-3.9-9.3-0.4-13.1C69.3,457.7,69.5,457.6,69.6,457.5L69.6,457.5z M72.9,468.3
		c2.2,2.1,5.6,2.1,7.8,0c2.1-2.3,2.1-5.8,0-8c-2.1-2.1-5.6-2.1-7.7,0C70.8,462.5,70.8,466,72.9,468.3L72.9,468.3z"/>
	<path fill="#EF791B" d="M89.5,456.8c-0.1-0.7,0.4-1.4,1.1-1.5c0.1,0,0.2,0,0.4,0h1.4c0.7-0.1,1.4,0.4,1.5,1.1c0,0.1,0,0.2,0,0.4
		v1.1l-0.1,0.8h0.1c0.6-1.1,1.4-2,2.4-2.7c1.1-0.8,2.3-1.2,3.7-1.1c2.4-0.3,4.7,1.3,5.4,3.7h0.1c1.3-2.2,3.7-3.6,6.3-3.7
		c4,0,6,2.3,6,6.8v10.1c0.1,0.7-0.4,1.4-1.2,1.5c-0.1,0-0.2,0-0.4,0h-1.6c-0.7,0.1-1.4-0.4-1.5-1.1c0-0.1,0-0.3,0-0.4v-9.2
		c0-0.9-0.1-1.8-0.5-2.7c-0.4-0.7-1.2-1-2-0.9c-1.4,0-2.7,0.7-3.4,1.8c-0.8,1.3-1.3,2.8-1.2,4.4v6.6c0.1,0.7-0.4,1.4-1.1,1.5
		c-0.1,0-0.2,0-0.4,0h-1.6c-0.7,0.1-1.4-0.4-1.5-1.1c0-0.1,0-0.3,0-0.4v-9.2c0-0.9-0.1-1.8-0.5-2.7c-0.4-0.7-1.2-1-2-0.9
		c-1.4,0-2.8,0.7-3.5,1.9c-0.8,1.3-1.3,2.8-1.2,4.4v6.6c0.1,0.7-0.4,1.4-1.1,1.5c-0.1,0-0.2,0-0.4,0h-1.6c-0.7,0.1-1.4-0.4-1.5-1.1
		c0-0.1,0-0.2,0-0.4L89.5,456.8z"/>
	<path fill="#EF791B" d="M121.1,456.8c-0.1-0.7,0.4-1.4,1.1-1.5c0.1,0,0.3,0,0.4,0h1.1c0.4,0,0.8,0.1,1.1,0.3
		c0.3,0.2,0.4,0.6,0.4,0.9v0.8v0.7h0.1c0-0.1,0.1-0.2,0.2-0.4c0.2-0.3,0.4-0.5,0.6-0.8c0.3-0.4,0.7-0.7,1.1-1
		c0.5-0.3,1.1-0.6,1.7-0.8c0.7-0.2,1.5-0.3,2.3-0.3c2.3-0.1,4.5,0.9,5.9,2.6c1.5,1.9,2.3,4.3,2.2,6.8c0.1,2.5-0.8,4.9-2.4,6.8
		c-1.5,1.7-3.8,2.7-6.1,2.6c-0.7,0-1.4-0.1-2-0.3c-0.5-0.1-1-0.4-1.5-0.7c-0.4-0.2-0.7-0.5-1-0.8c-0.2-0.2-0.4-0.4-0.6-0.7l-0.2-0.3
		h0.1c0.1,0.5,0.1,1,0.1,1.5v6.4c0.1,0.7-0.4,1.4-1.1,1.5c-0.1,0-0.3,0-0.4,0h-1.6c-0.7,0.1-1.4-0.4-1.5-1.1c0-0.1,0-0.3,0-0.4
		V456.8z M126.8,468.2c0.8,1.1,2,1.7,3.4,1.6c1.3,0,2.5-0.5,3.3-1.5c0.9-1.1,1.4-2.6,1.3-4.1c0.1-1.5-0.3-2.9-1.2-4.1
		c-0.8-1-2-1.6-3.3-1.5c-1.2,0-2.4,0.5-3.3,1.4c-1,1.2-1.5,2.7-1.4,4.2C125.6,465.8,126,467.1,126.8,468.2L126.8,468.2z"/>
	<path fill="#EF791B" d="M141.9,456.8c-0.1-0.7,0.4-1.4,1.1-1.5c0.1,0,0.3,0,0.4,0h1.5c0.7-0.1,1.4,0.4,1.5,1.1c0,0.1,0,0.2,0,0.4
		v9.1c-0.1,0.9,0.2,1.9,0.6,2.7c0.5,0.7,1.4,1,2.2,0.9c1.5,0.1,2.9-0.6,3.8-1.8c0.9-1.2,1.4-2.7,1.4-4.3v-6.8
		c-0.1-0.7,0.4-1.4,1.1-1.5c0.1,0,0.3,0,0.4,0h1.5c0.7-0.1,1.4,0.4,1.5,1.1c0,0.1,0,0.2,0,0.4v15c0.1,0.7-0.4,1.4-1.2,1.5
		c-0.1,0-0.2,0-0.4,0h-1.4c-0.7,0.1-1.4-0.4-1.5-1.1c0-0.1,0-0.2,0-0.4v-1.1l0.1-0.8h-0.1c-0.6,1.1-1.4,2-2.4,2.6
		c-1.2,0.8-2.5,1.1-3.9,1.1c-4.2,0-6.4-2.3-6.4-6.8L141.9,456.8z"/>
	<path fill="#EF791B" d="M163.8,459.1h-1c-0.7,0.1-1.4-0.4-1.5-1.1c0-0.1,0-0.2,0-0.4V457c-0.1-0.7,0.4-1.4,1.1-1.5
		c0.1,0,0.3,0,0.4,0h1v-3.7c-0.1-0.7,0.4-1.4,1.2-1.5c0.1,0,0.2,0,0.4,0h1.4c0.7-0.1,1.4,0.4,1.5,1.1c0,0.1,0,0.3,0,0.4v3.7h2.7
		c0.7-0.1,1.4,0.4,1.5,1.1c0,0.1,0,0.3,0,0.4v0.6c0.1,0.7-0.4,1.4-1.1,1.5c-0.1,0-0.2,0-0.4,0h-2.7v7c-0.2,1.6,1,3.1,2.6,3.3
		c0.1,0,0.2,0,0.4,0c0.4,0,0.9,0.1,1.2,0.4c0.3,0.3,0.4,0.7,0.3,1.1v1.1c0,1-0.6,1.5-1.9,1.5c-1.8,0-3.6-0.5-5-1.6
		c-1.5-1.2-2.3-3-2.2-4.9L163.8,459.1z"/>
	<path fill="#EF791B" d="M174.9,465.1c0.7-0.9,1.7-1.5,2.8-1.9c1.1-0.4,2.2-0.7,3.4-0.9c1.1-0.2,2.3-0.2,3.4-0.2h0.8v-0.4
		c0-2.1-1.1-3.2-3.4-3.2c-1.3,0-2.6,0.4-3.8,1c-0.6,0.4-1.5,0.2-1.9-0.4c0-0.1-0.1-0.1-0.1-0.2l-0.4-0.7c-0.4-0.6-0.3-1.4,0.3-1.8
		c0.1-0.1,0.2-0.1,0.3-0.2c1.9-1,3.9-1.5,6-1.5c2-0.1,4,0.5,5.6,1.9c1.4,1.4,2.1,3.3,2,5.3v9.8c0.1,0.7-0.4,1.4-1.2,1.5
		c-0.1,0-0.2,0-0.4,0h-1.2c-0.7,0.1-1.4-0.4-1.5-1.1c0-0.1,0-0.2,0-0.4v-0.7l0.1-0.8h-0.1c0,0.1-0.1,0.2-0.2,0.4
		c-0.2,0.3-0.4,0.5-0.6,0.8c-0.3,0.4-0.7,0.7-1.1,1c-0.5,0.3-1.1,0.6-1.6,0.8c-0.7,0.2-1.4,0.4-2.1,0.4c-1.6,0-3.1-0.5-4.3-1.5
		c-1.2-1-1.8-2.4-1.8-3.9C173.8,467.1,174.1,466,174.9,465.1z M179.1,469.5c0.6,0.5,1.3,0.7,2,0.7c1.2,0,2.3-0.5,3-1.5
		c0.8-0.9,1.2-2,1.2-3.2v-0.7h-0.8c-4.1,0-6.2,1-6.2,3C178.4,468.5,178.6,469.1,179.1,469.5L179.1,469.5z"/>
	<path fill="#EF791B" d="M194.2,459.1h-1c-0.7,0.1-1.4-0.4-1.5-1.1c0-0.1,0-0.2,0-0.4V457c-0.1-0.7,0.4-1.4,1.1-1.5
		c0.1,0,0.3,0,0.4,0h1v-3.7c-0.1-0.7,0.4-1.4,1.1-1.5c0.1,0,0.3,0,0.4,0h1.4c0.7-0.1,1.4,0.3,1.6,1c0,0.1,0,0.3,0,0.5v3.7h2.7
		c0.7-0.1,1.4,0.4,1.5,1.1c0,0.1,0,0.3,0,0.4v0.6c0.1,0.7-0.4,1.4-1.1,1.5c-0.1,0-0.2,0-0.4,0h-2.7v7c-0.2,1.6,1,3.1,2.6,3.3
		c0.1,0,0.3,0,0.4,0c0.4,0,0.9,0.1,1.2,0.4c0.3,0.3,0.4,0.7,0.3,1.1v1.1c0,1-0.6,1.5-1.9,1.5c-1.8,0-3.6-0.5-5-1.6
		c-1.5-1.2-2.3-3-2.2-4.9L194.2,459.1z"/>
	<path fill="#EF791B" d="M205.6,450.8v-1.1c-0.1-0.7,0.4-1.4,1.1-1.5c0.1,0,0.2,0,0.4,0h1.6c0.7-0.1,1.4,0.4,1.5,1.1
		c0,0.1,0,0.3,0,0.4v1.1c0,1-0.5,1.4-1.5,1.4H207c-0.7,0.1-1.4-0.4-1.5-1.1C205.6,451,205.6,450.9,205.6,450.8z M205.6,456.8
		c-0.1-0.7,0.4-1.4,1.1-1.5c0.1,0,0.2,0,0.4,0h1.6c0.7-0.1,1.4,0.4,1.5,1.1c0,0.1,0,0.2,0,0.4v15c0.1,0.7-0.4,1.4-1.1,1.5
		c-0.1,0-0.2,0-0.4,0H207c-0.7,0.1-1.4-0.4-1.5-1.1c0-0.1,0-0.2,0-0.4V456.8z"/>
	<path fill="#EF791B" d="M215.7,457.5c4.1-3.6,10.2-3.6,14.3,0c3.7,3.5,3.9,9.3,0.4,13c-0.1,0.1-0.3,0.3-0.4,0.4
		c-4.1,3.5-10.2,3.5-14.3,0c-3.7-3.5-3.9-9.3-0.4-13.1C215.4,457.7,215.5,457.6,215.7,457.5L215.7,457.5z M219,468.3
		c2.2,2.1,5.6,2.1,7.8,0c2.1-2.3,2.1-5.8,0-8c-2.1-2.1-5.6-2.1-7.7,0C216.9,462.5,216.9,466,219,468.3L219,468.3z"/>
	<path fill="#EF791B" d="M235.6,456.8c-0.1-0.7,0.4-1.4,1.1-1.5c0.1,0,0.2,0,0.4,0h1.4c0.7-0.1,1.4,0.4,1.5,1.1c0,0.1,0,0.2,0,0.4
		v1.1l-0.1,0.8h0.1c0.6-1.1,1.4-2,2.4-2.6c1.2-0.8,2.7-1.2,4.1-1.2c4.3,0,6.4,2.3,6.4,6.8v10.1c0.1,0.7-0.4,1.4-1.2,1.5
		c-0.1,0-0.2,0-0.4,0h-1.5c-0.7,0.1-1.4-0.4-1.5-1.1c0-0.1,0-0.3,0-0.4v-9.1c0.1-1-0.2-1.9-0.6-2.7c-0.5-0.7-1.4-1-2.3-0.9
		c-1.5-0.1-2.9,0.6-3.8,1.7c-1,1.2-1.5,2.7-1.5,4.2v6.9c0.1,0.7-0.4,1.4-1.1,1.5c-0.1,0-0.2,0-0.4,0h-1.6c-0.7,0.1-1.4-0.4-1.5-1.1
		c0-0.1,0-0.2,0-0.4L235.6,456.8z"/>
	<path fill="#EF791B" d="M256.1,465.1c0.7-0.9,1.7-1.5,2.8-1.9c1.1-0.4,2.2-0.7,3.4-0.9c1.1-0.2,2.3-0.2,3.4-0.2h0.8v-0.4
		c0-2.1-1.1-3.2-3.4-3.2c-1.3,0-2.6,0.4-3.8,1c-0.6,0.4-1.5,0.2-1.9-0.4c0-0.1-0.1-0.1-0.1-0.2l-0.4-0.7c-0.4-0.6-0.3-1.4,0.3-1.8
		c0.1-0.1,0.2-0.1,0.3-0.2c1.9-1,3.9-1.5,6-1.5c2-0.1,4,0.6,5.6,1.9c1.4,1.4,2.1,3.3,2,5.3v9.8c0.1,0.7-0.4,1.4-1.2,1.5
		c-0.1,0-0.2,0-0.4,0h-1.2c-0.7,0.1-1.4-0.4-1.5-1.1c0-0.1,0-0.2,0-0.4v-0.7l0.1-0.8h-0.1c0,0.1-0.1,0.2-0.2,0.4
		c-0.2,0.3-0.4,0.5-0.6,0.8c-0.3,0.4-0.7,0.7-1.1,1c-0.5,0.3-1.1,0.6-1.6,0.8c-0.7,0.2-1.4,0.4-2.1,0.4c-1.6,0-3.1-0.5-4.3-1.5
		c-1.2-1-1.8-2.4-1.8-3.9C255,467.1,255.4,466,256.1,465.1z M260.3,469.5c0.6,0.5,1.3,0.7,2,0.7c1.2,0,2.3-0.5,3-1.5
		c0.8-0.9,1.2-2,1.2-3.2v-0.7h-0.7c-4.2,0-6.2,1-6.2,3C259.6,468.5,259.9,469.1,260.3,469.5z"/>
	<path fill="#EF791B" d="M274.6,449.7c-0.1-0.7,0.4-1.4,1.1-1.5c0.1,0,0.3,0,0.4,0h1.6c0.7-0.1,1.4,0.4,1.5,1.1c0,0.1,0,0.2,0,0.4
		v17.5c0,1.3,0.5,2,1.4,2.1c0.6,0,1.1,0.5,1.1,1.1c0,0,0,0.1,0,0.1v1.2c0.1,0.7-0.4,1.4-1.1,1.5c-0.1,0-0.3,0-0.4,0
		c-0.6,0-1.3-0.1-1.9-0.2c-0.6-0.2-1.2-0.4-1.7-0.7c-0.6-0.4-1.1-1.1-1.4-1.8c-0.4-1-0.5-2-0.5-3.1L274.6,449.7z"/>
	<path fill="#EF791B" d="M292.9,449.7c-0.1-0.7,0.4-1.4,1.1-1.5c0.1,0,0.2,0,0.4,0h1.7c0.7-0.1,1.4,0.4,1.5,1.1c0,0.1,0,0.2,0,0.4
		v22c0.1,0.7-0.4,1.4-1.1,1.5c-0.1,0-0.2,0-0.4,0h-1.7c-0.7,0.1-1.4-0.4-1.5-1.1c0-0.1,0-0.2,0-0.4V449.7z"/>
	<path fill="#EF791B" d="M301.8,456.8c-0.1-0.7,0.4-1.4,1.1-1.5c0.1,0,0.2,0,0.4,0h1.4c0.7-0.1,1.4,0.4,1.5,1.1c0,0.1,0,0.2,0,0.4
		v1.1l-0.1,0.8h0.1c0.6-1.1,1.4-2,2.4-2.6c1.2-0.8,2.7-1.2,4.1-1.2c4.3,0,6.4,2.3,6.4,6.8v10.1c0.1,0.7-0.4,1.4-1.1,1.5
		c-0.1,0-0.3,0-0.4,0h-1.5c-0.7,0.1-1.4-0.4-1.5-1.1c0-0.1,0-0.3,0-0.4v-9.1c0.1-1-0.2-1.9-0.6-2.7c-0.5-0.7-1.4-1-2.2-0.9
		c-1.5,0-2.9,0.6-3.8,1.7c-1,1.2-1.5,2.7-1.5,4.2v6.9c0.1,0.7-0.4,1.4-1.1,1.5c-0.1,0-0.2,0-0.4,0h-1.6c-0.7,0.1-1.4-0.4-1.5-1.1
		c0-0.1,0-0.2,0-0.4L301.8,456.8z"/>
	<path fill="#EF791B" d="M323.5,459.1h-1c-0.7,0.1-1.4-0.4-1.5-1.1c0-0.1,0-0.2,0-0.4V457c-0.1-0.7,0.4-1.4,1.1-1.5
		c0.1,0,0.3,0,0.4,0h1v-3.7c-0.1-0.7,0.4-1.4,1.2-1.5c0.1,0,0.2,0,0.4,0h1.4c0.7-0.1,1.4,0.4,1.5,1.1c0,0.1,0,0.2,0,0.4v3.7h2.7
		c0.7-0.1,1.4,0.4,1.5,1.1c0,0.1,0,0.3,0,0.4v0.6c0.1,0.7-0.4,1.4-1.1,1.5c-0.1,0-0.2,0-0.4,0H328v7c-0.2,1.6,1,3.1,2.6,3.3
		c0.1,0,0.2,0,0.4,0c0.4,0,0.9,0.1,1.2,0.4c0.3,0.3,0.4,0.7,0.3,1.1v1.1c0,1-0.6,1.5-1.9,1.5c-1.8,0-3.6-0.5-5-1.6
		c-1.5-1.2-2.3-3-2.2-4.9L323.5,459.1z"/>
	<path fill="#EF791B" d="M336.2,457.5c1.8-1.8,4.2-2.7,6.7-2.6c2.2-0.1,4.4,0.7,6,2.4c1.5,1.7,2.3,3.9,2.2,6.2
		c0,0.4-0.2,0.8-0.5,1.1c-0.3,0.3-0.7,0.5-1.1,0.5h-11.2c0.1,1.4,0.7,2.7,1.8,3.7c1,0.9,2.4,1.3,3.7,1.3c1.4,0,2.8-0.4,4-1.2
		c0.9-0.4,1.6-0.3,2,0.5l0.4,0.7c0.4,0.6,0.3,1.4-0.3,1.8c-0.1,0.1-0.2,0.1-0.2,0.1c-1.9,1.2-4,1.8-6.2,1.8
		c-2.7,0.1-5.2-0.9-7.1-2.7c-1.8-1.8-2.8-4.2-2.7-6.7C333.5,461.8,334.4,459.3,336.2,457.5z M346.5,462.2c0-1.1-0.4-2.1-1.1-2.9
		c-0.7-0.7-1.6-1.1-2.6-1.1c-1.1,0-2.1,0.4-2.9,1.1c-0.8,0.8-1.4,1.8-1.5,2.9H346.5z"/>
	<path fill="#EF791B" d="M353.6,449.7c-0.1-0.7,0.4-1.4,1.1-1.5c0.1,0,0.2,0,0.4,0h1.6c0.7-0.1,1.4,0.4,1.5,1.1c0,0.1,0,0.2,0,0.4
		v17.5c0,1.3,0.5,2,1.4,2.1c0.6,0,1.1,0.5,1.1,1.1c0,0,0,0.1,0,0.1v1.2c0.1,0.7-0.4,1.4-1.1,1.5c-0.1,0-0.3,0-0.4,0
		c-0.6,0-1.3-0.1-1.9-0.2c-0.6-0.2-1.2-0.4-1.7-0.7c-0.6-0.4-1.1-1.1-1.4-1.8c-0.4-1-0.5-2-0.5-3.1V449.7z"/>
	<path fill="#EF791B" d="M363,449.7c-0.1-0.7,0.4-1.4,1.1-1.5c0.1,0,0.2,0,0.4,0h1.6c0.7-0.1,1.4,0.4,1.5,1.1c0,0.1,0,0.2,0,0.4
		v17.5c0,1.3,0.5,2,1.4,2.1c0.6,0,1.1,0.5,1.1,1.1c0,0,0,0.1,0,0.1v1.2c0.1,0.7-0.4,1.4-1.1,1.5c-0.1,0-0.2,0-0.4,0
		c-0.6,0-1.3-0.1-1.9-0.2c-0.6-0.2-1.2-0.4-1.8-0.7c-0.6-0.4-1.1-1.1-1.4-1.8c-0.4-1-0.5-2-0.5-3.1V449.7z"/>
	<path fill="#EF791B" d="M372.3,450.8v-1.1c-0.1-0.7,0.4-1.4,1.1-1.5c0.1,0,0.2,0,0.4,0h1.6c0.7-0.1,1.4,0.4,1.5,1.1
		c0,0.1,0,0.3,0,0.4v1.1c0,1-0.5,1.4-1.5,1.4h-1.6c-0.7,0.1-1.4-0.4-1.5-1.1C372.3,451,372.3,450.9,372.3,450.8z M372.3,456.8
		c-0.1-0.7,0.4-1.4,1.1-1.5c0.1,0,0.2,0,0.4,0h1.6c0.7-0.1,1.4,0.4,1.5,1.1c0,0.1,0,0.2,0,0.4v15c0.1,0.7-0.4,1.4-1.1,1.5
		c-0.1,0-0.2,0-0.4,0h-1.6c-0.7,0.1-1.4-0.4-1.5-1.1c0-0.1,0-0.2,0-0.4V456.8z"/>
	<path fill="#EF791B" d="M384.1,476.1c1.2,0.4,2.4,0.7,3.7,0.7c1.3,0.1,2.6-0.3,3.7-1.1c1-0.8,1.6-2,1.5-3.3v-1.3v-0.9l0,0
		c-1,1.8-3,2.8-5,2.7c-2.3,0.1-4.6-0.8-6.1-2.6c-1.5-1.8-2.3-4.1-2.2-6.5c-0.1-2.3,0.7-4.6,2.2-6.4c1.5-1.7,3.8-2.6,6.1-2.5
		c0.7,0,1.5,0.1,2.2,0.3c0.6,0.1,1.1,0.4,1.6,0.7c0.3,0.2,0.7,0.5,1,0.8c0.2,0.2,0.4,0.4,0.5,0.7l0.1,0.3h0.1c0-0.1,0-0.3,0-0.5
		v-0.7c0-0.3,0.1-0.6,0.4-0.9c0.3-0.2,0.7-0.4,1.1-0.3h1.2c0.7-0.1,1.4,0.4,1.5,1.1c0,0.1,0,0.2,0,0.4v15.4c0.2,2.5-0.9,4.8-2.8,6.4
		c-1.9,1.4-4.3,2.2-6.7,2.1c-1.8,0-3.7-0.3-5.4-1c-0.7-0.1-1.1-0.8-1-1.4c0-0.2,0.1-0.3,0.2-0.5l0.3-0.8c0.3-0.7,1.1-1.1,1.8-0.9
		C384,476.1,384.1,476.1,384.1,476.1z M391.9,467.9c0.9-1.1,1.3-2.6,1.2-4c0-3.5-1.5-5.2-4.5-5.2c-1.2-0.1-2.4,0.4-3.2,1.3
		c-0.8,1-1.2,2.3-1.1,3.6c-0.1,1.4,0.4,2.9,1.2,4c0.8,1,2.1,1.6,3.4,1.5C390,469.1,391.1,468.7,391.9,467.9L391.9,467.9z"/>
	<path fill="#EF791B" d="M402.9,457.5c1.8-1.8,4.2-2.7,6.7-2.6c2.2-0.1,4.4,0.7,6,2.4c1.5,1.7,2.3,3.9,2.2,6.2
		c0,0.4-0.2,0.8-0.5,1.1c-0.3,0.3-0.7,0.5-1.1,0.5h-11.2c0.1,1.4,0.7,2.7,1.8,3.7c1,0.9,2.4,1.3,3.7,1.3c1.4,0,2.8-0.4,4-1.2
		c0.9-0.4,1.6-0.3,2,0.5l0.4,0.7c0.4,0.6,0.3,1.4-0.2,1.8c-0.1,0.1-0.2,0.1-0.3,0.2c-1.9,1.2-4,1.8-6.2,1.8
		c-2.7,0.1-5.2-0.9-7.2-2.7C399.4,467.2,399.4,461.3,402.9,457.5L402.9,457.5z M413.2,462.2c0-1.1-0.3-2.1-1-2.9
		c-0.7-0.7-1.6-1.1-2.6-1.1c-1.1,0-2.1,0.4-2.9,1.1c-0.8,0.8-1.4,1.8-1.5,2.9H413.2z"/>
	<path fill="#EF791B" d="M420.3,456.8c-0.1-0.7,0.4-1.4,1.1-1.5c0.1,0,0.2,0,0.4,0h1.4c0.7-0.1,1.4,0.4,1.5,1.1c0,0.1,0,0.3,0,0.4
		v1.1l-0.1,0.8h0.1c0.6-1.1,1.4-2,2.4-2.6c1.2-0.8,2.7-1.2,4.1-1.2c4.3,0,6.4,2.3,6.4,6.8v10.1c0.1,0.7-0.4,1.4-1.1,1.5
		c-0.1,0-0.3,0-0.4,0h-1.5c-0.7,0.1-1.4-0.4-1.5-1.1c0-0.1,0-0.3,0-0.4v-9.1c0.1-1-0.2-1.9-0.6-2.7c-0.5-0.7-1.4-1-2.2-0.9
		c-1.5,0-2.9,0.6-3.8,1.7c-1,1.2-1.5,2.7-1.5,4.2v6.9c0.1,0.7-0.4,1.4-1.1,1.5c-0.1,0-0.2,0-0.4,0h-1.6c-0.7,0.1-1.4-0.4-1.5-1.1
		c0-0.1,0-0.2,0-0.4L420.3,456.8z"/>
	<path fill="#EF791B" d="M442.8,457.6c1.9-1.9,4.5-2.8,7.2-2.7c2.1,0,4.2,0.6,6,1.8c0.7,0.5,0.8,1.2,0.3,2l-0.5,0.7
		c-0.4,0.7-1.3,0.9-2,0.4c0,0,0,0-0.1,0c-1.1-0.7-2.3-1.1-3.6-1.1c-1.5-0.1-3,0.5-4,1.6c-1,1.1-1.6,2.5-1.5,3.9
		c-0.1,3,2.3,5.6,5.4,5.6c0.1,0,0.2,0,0.3,0c1.5,0,2.9-0.5,4.1-1.4c0.9-0.5,1.6-0.3,2,0.5l0.4,0.7c0.4,0.6,0.3,1.4-0.3,1.9
		c0,0-0.1,0.1-0.2,0.1c-1.9,1.4-4.2,2.1-6.5,2.1c-2.7,0.1-5.3-0.9-7.2-2.7C439.1,467.3,439.1,461.3,442.8,457.6
		C442.8,457.6,442.8,457.5,442.8,457.6L442.8,457.6z"/>
	<path fill="#EF791B" d="M460.9,457.5c1.8-1.8,4.2-2.7,6.7-2.6c2.2-0.1,4.4,0.7,6,2.4c1.5,1.7,2.3,3.9,2.2,6.2
		c0,0.4-0.2,0.8-0.5,1.1c-0.3,0.3-0.7,0.5-1.1,0.5H463c0.1,1.4,0.7,2.7,1.8,3.7c1,0.9,2.4,1.3,3.7,1.3c1.4,0,2.8-0.4,4-1.2
		c0.9-0.4,1.6-0.3,2,0.5l0.4,0.7c0.4,0.6,0.3,1.4-0.2,1.8c-0.1,0.1-0.2,0.1-0.3,0.2c-1.9,1.2-4,1.8-6.2,1.8
		c-2.7,0.1-5.2-0.9-7.2-2.7c-1.8-1.8-2.8-4.2-2.7-6.7C458.2,461.8,459.1,459.3,460.9,457.5z M471.2,462.2c0-1.1-0.4-2.1-1.1-2.9
		c-0.7-0.7-1.6-1.1-2.6-1.1c-1.1,0-2.2,0.3-3,1.1c-0.8,0.8-1.4,1.8-1.5,2.9H471.2z"/>
	<path fill="#023842" d="M52.4,373.6c-4-0.2-7.5,2.9-7.6,7c0,0.2,0,0.4,0,0.5v11.5c0,0.4,0.4,0.8,0.8,0.8h1c0.4,0,0.8-0.4,0.8-0.8
		v-6.1h10.2v6.1c0,0.4,0.4,0.8,0.8,0.8h1c0.4,0,0.8-0.4,0.8-0.8v-11.5c0.1-4-3.1-7.4-7.1-7.5C52.8,373.6,52.6,373.6,52.4,373.6
		 M57.6,383.7H47.3v-2.6c-0.1-2.6,1.9-4.9,4.6-5c0.2,0,0.4,0,0.5,0c2.6-0.2,4.9,1.8,5.1,4.4c0,0.2,0,0.4,0,0.6L57.6,383.7z
		 M78,378.2c-1.8,0-3.5,0.8-4.6,2.1c-2.1-2.5-5.8-2.9-8.3-0.8c-1.3,1.1-2.1,2.7-2.1,4.4v8.5c0,0.4,0.3,0.8,0.8,0.8c0,0,0,0,0,0h1
		c0.4,0,0.8-0.4,0.8-0.8V384c0-1.8,1.5-3.3,3.3-3.3c1.8,0,3.3,1.5,3.3,3.3v8.5c0,0.4,0.4,0.8,0.8,0.8h1c0.4,0,0.8-0.4,0.8-0.8l0,0
		V384c0-1.8,1.5-3.3,3.3-3.3c1.8,0,3.3,1.5,3.3,3.3v8.5c0,0.4,0.4,0.8,0.8,0.8h1c0.4,0,0.8-0.4,0.8-0.8l0,0V384
		c0.1-3.1-2.3-5.7-5.4-5.8c0,0,0,0,0,0L78,378.2 M93.4,384.2c-3.1-0.4-3.7-0.9-3.7-1.6c0-0.4,0.1-0.7,0.4-1c0.8-0.7,1.8-1,2.8-0.9
		c1.6-0.2,3.1,0.7,3.7,2.2c0.1,0.3,0.4,0.6,0.8,0.6h1c0.4,0,0.8-0.4,0.8-0.8c0-0.1,0-0.1,0-0.2c-0.6-2.7-2.9-4.3-6.2-4.3
		c-3.8,0-5.8,2.2-5.8,4.4c0,3.3,3.5,3.8,5.9,4.1c3.6,0.5,3.9,1.4,3.9,2.2c0,0.4-0.1,0.9-0.4,1.2c-0.9,0.8-2,1.1-3.1,1.1
		c-1.4,0-3.9-0.4-4.4-2.7c-0.1-0.4-0.4-0.6-0.8-0.6h-1c-0.2,0-0.5,0.1-0.6,0.3c-0.1,0.2-0.2,0.4-0.2,0.6c0.5,3,3.1,4.9,6.9,4.9
		c1.8,0.1,3.6-0.6,4.9-1.8c0.8-0.8,1.2-1.9,1.2-3.1c-0.2-3.7-4.2-4.3-6.1-4.6 M107.8,381.1c0.4,0,0.8-0.4,0.8-0.8l0,0v-1
		c0-0.4-0.4-0.8-0.8-0.8h-2.9v-2c0-0.4-0.4-0.8-0.8-0.8h-1c-0.4,0-0.8,0.4-0.8,0.8l0,0v2h-1.1c-0.4,0-0.8,0.3-0.8,0.8l0,0v1
		c0,0.4,0.4,0.8,0.8,0.8h1v6.9c-0.1,1.6,0.5,3.1,1.7,4.2c0.9,0.8,2,1.2,3.2,1.2c0.2,0,0.4,0,0.6,0c0.4,0,0.7-0.4,0.7-0.8v-0.9
		c0-0.4-0.3-0.8-0.8-0.8c0,0,0,0,0,0l0,0c-0.7,0.1-1.5-0.1-2-0.6c-0.5-0.6-0.8-1.5-0.7-2.3v-6.9L107.8,381.1z M134.1,378.3
		c-1.6-0.2-3.3,0.2-4.7,1.1v-0.1c0-0.4-0.4-0.8-0.8-0.8h-1c-0.4,0-0.8,0.4-0.8,0.8l0,0v13.3c0,0.4,0.4,0.8,0.8,0.8h1
		c0.4,0,0.8-0.4,0.8-0.8l0,0v-8c0-1.1,0.4-2.2,1.2-3c0.9-0.8,2.1-1.1,3.3-0.9c0.4,0,0.8-0.3,0.9-0.7v-1
		C134.8,378.7,134.5,378.3,134.1,378.3 M184.3,378.3c-1.8,0-3.5,0.8-4.5,2.1c-2.1-2.5-5.8-2.9-8.3-0.8c-1.3,1.1-2.1,2.7-2.2,4.5v8.5
		c0,0.4,0.4,0.8,0.8,0.8h1c0.4,0,0.8-0.4,0.8-0.8l0,0v-8.5c0-1.8,1.5-3.3,3.3-3.3c1.8,0,3.3,1.5,3.3,3.3v8.5c0,0.4,0.4,0.8,0.8,0.8
		h1c0.4,0,0.8-0.4,0.8-0.8l0,0v-8.5c0-1.8,1.5-3.3,3.3-3.3c1.8,0,3.3,1.5,3.3,3.3v8.5c0,0.4,0.4,0.8,0.8,0.8h1
		c0.4,0,0.8-0.4,0.8-0.8l0,0v-8.5c0.1-3.1-2.3-5.7-5.4-5.8c0,0,0,0,0,0h-0.5 M214.3,374h-1c-0.4,0-0.8,0.3-0.8,0.7c0,0,0,0,0,0l0,0
		v11.5c-0.1,2.8-2.5,5-5.4,4.9c-2.6-0.1-4.7-2.2-4.9-4.9v-11.5c0-0.4-0.3-0.8-0.8-0.8c0,0,0,0,0,0h-1c-0.4,0-0.8,0.3-0.8,0.8v11.5
		c0.2,4.2,3.7,7.5,8,7.3c4-0.2,7.2-3.4,7.3-7.3v-11.5C215.1,374.3,214.7,374,214.3,374L214.3,374L214.3,374 M235.5,373.5
		c-2.1,0-4.1,1-5.3,2.8c-1.2-1.7-3.2-2.8-5.3-2.8c-3.6,0-6.6,2.9-6.6,6.5v12.6c0,0.4,0.4,0.8,0.8,0.8h1c0.4,0,0.8-0.4,0.8-0.8l0,0
		v-12.6c0.1-2.2,2-4,4.3-3.8c2.1,0.1,3.7,1.8,3.8,3.8v12.6c0,0.4,0.3,0.8,0.7,0.8h1c0.4,0,0.8-0.4,0.8-0.8l0,0v-12.6
		c0-2.2,1.8-4,4-4c2.2,0,4,1.8,4,4v12.6c0,0.4,0.4,0.8,0.8,0.8h1c0.4,0,0.8-0.4,0.8-0.8l0,0v-12.6
		C242.1,376.4,239.1,373.5,235.5,373.5 M166,382c-0.7-1.2-1.6-2.1-2.8-2.8c-1.2-0.7-2.5-1-3.9-1c-1.4,0-2.7,0.3-3.9,1
		c-1.2,0.7-2.1,1.6-2.8,2.8c-0.7,1.2-1,2.6-1,3.9c0,1.4,0.3,2.7,1,3.9c0.6,1.1,1.5,2.1,2.5,2.8c1.1,0.7,2.4,1,3.7,1h0.3
		c0.9,0,1.7-0.1,2.5-0.5l0.3-0.1c0.2-0.1,0.4-0.2,0.6-0.3l0.1-0.1c0.6-0.4,1.2-0.8,1.7-1.4v1.3c0,0.5,0.4,0.8,0.8,0.8h1
		c0.5,0,0.8-0.4,0.8-0.8l0,0V386C167.1,384.6,166.7,383.2,166,382 M163.6,388.6c-1.3,2.4-4.3,3.2-6.6,1.9l-0.1-0.1
		c-0.7-0.4-1.3-1.1-1.8-1.8c-0.9-1.7-0.9-3.6,0-5.3c1.3-2.4,4.3-3.2,6.6-1.9c0.7,0.4,1.3,0.9,1.7,1.6l0.1,0.3
		C164.5,385,164.5,386.9,163.6,388.6 M149.1,372.6h-1c-0.4,0-0.8,0.4-0.8,0.8l0,0v6.7c-1.3-1.3-3.1-2-4.9-2
		c-4.3,0.2-7.6,3.9-7.4,8.1c0.2,3.7,3,6.8,6.7,7.3c0.2,0,0.5,0,0.7,0h0.7c3.8-0.4,6.7-3.5,6.7-7.3v-12.9
		C149.9,373,149.5,372.7,149.1,372.6C149.1,372.7,149.1,372.7,149.1,372.6L149.1,372.6 M137.6,386.1c0-2.7,2.2-4.9,4.9-4.9
		c2.7,0,4.9,2.2,4.9,4.9c0,2.7-2.2,4.9-4.9,4.9C139.8,390.9,137.6,388.8,137.6,386.1 M121.6,389.5c-0.3-0.2-0.8-0.2-1,0.1
		c-0.9,1-2.2,1.5-3.5,1.5c-2.5,0-4.7-1.9-5-4.4h11.4c0.4,0,0.8-0.3,0.8-0.8c0-2.1-0.9-4.1-2.4-5.6c-1.3-1.4-3.2-2.2-5.1-2.2
		c-4.3,0.2-7.6,3.9-7.3,8.2c0.2,3.9,3.4,7.1,7.3,7.3h0.3c2.1,0.1,4.1-0.8,5.5-2.4c0.3-0.3,0.2-0.8-0.1-1.1l0,0L121.6,389.5z
		 M116.9,380.6c2.1,0,3.9,1.4,4.6,3.4h-9.1C113,382.1,114.8,380.7,116.9,380.6 M261.4,387.5c-0.3-0.2-0.8-0.1-1,0.2
		c-1.2,2.1-3.5,3.4-5.9,3.5c-4.2-0.3-7.3-3.9-7-8.1c0.3-3.8,3.3-6.8,7-7c2.5,0,4.9,1.4,6.1,3.6c0.2,0.4,0.7,0.5,1,0.3l0,0l1-0.5
		c0.4-0.2,0.5-0.7,0.3-1c0,0,0,0,0,0l0,0c-1.7-3-4.8-4.9-8.3-4.9c-5.6,0.3-9.9,5-9.6,10.6c0.3,5.2,4.4,9.4,9.6,9.6
		c3.3-0.1,6.4-1.8,8.1-4.7c0.2-0.4,0.1-0.8-0.3-1l0,0L261.4,387.5z"/>
</g>
<g id="C4I">
	<rect x="292.9" y="186.4" fill="#E30C17" width="29.9" height="29.9"/>
	<rect x="292.9" y="150.5" fill="#E30C17" width="29.9" height="29.9"/>
	<polygon fill="#E30C17" points="250.9,222.4 250.9,142.8 250.9,142.3 250.9,144.4 322.8,144.4 322.8,114.6 250.9,114.6 221,114.6 
		221,144.4 221,142.3 221,142.8 221,222.4 221,252.2 250.9,252.2 322.8,252.2 322.8,222.4 	"/>
	<polygon fill="#EF791B" points="214.9,258.6 214.9,108.5 322.8,108.5 322.8,78.6 185.1,78.6 185.1,288.9 322.8,288.9 322.8,258.6 	
		"/>
	<rect x="257" y="150.5" fill="#E30C17" width="29.9" height="65.8"/>
	<rect x="328.9" y="42.7" fill="#023843" width="29.9" height="29.9"/>
	<polygon fill="#023843" points="179,72.5 322.8,72.5 322.8,42.7 179,42.7 178.2,42.7 149.2,42.7 149.2,324.9 358.7,324.9 
		358.7,295 179,295 179,109 	"/>
	<polygon fill="#EF791B" points="328.9,78.6 328.9,172.7 328.9,172.7 328.9,215.4 328.9,288.9 358.7,288.9 358.7,215.4 358.7,172.7 
		358.7,172.7 358.7,78.6 	"/>
	<rect x="191" y="181.6" fill="#EF791B" width="2.2" height="1.8"/>
</g>
</svg>
